<svg width="480" height="332" viewBox="0 0 480 332" fill="none" xmlns="http://www.w3.org/2000/svg">
<path d="M319 43.7001C321.043 43.7001 322.7 42.0435 322.7 40C322.7 37.9566 321.043 36.3 319 36.3C316.956 36.3 315.3 37.9566 315.3 40C315.3 42.0435 316.956 43.7001 319 43.7001Z" fill="#FFD736"/>
<path d="M364.801 45.7C360.709 40.5611 355.202 36.7341 348.958 34.6923C342.715 32.6505 336.01 32.4835 329.673 34.2118C323.336 35.9402 317.644 39.4881 313.302 44.4169C308.96 49.3457 306.158 55.4391 305.242 61.9436C304.326 68.4481 305.337 75.0783 308.15 81.0144C310.962 86.9504 315.453 91.9319 321.067 95.3428C326.68 98.7537 333.171 100.444 339.735 100.206C346.299 99.967 352.65 97.8095 358.001 94C361.696 91.3346 364.814 87.9497 367.167 84.0487C369.521 80.1477 371.062 75.8111 371.697 71.2995C372.332 66.788 372.049 62.1946 370.864 57.7954C369.678 53.3961 367.616 49.2819 364.801 45.7Z" fill="#1D2CC2"/>
<path d="M381.801 54.3C398.001 34 400.001 22.1 383.301 18.2C372.808 15.8181 361.922 15.7499 351.401 18C347.206 19.0016 343.26 20.8485 339.804 23.4277C336.348 26.0069 333.454 29.2641 331.301 33C318.701 54.8 317.101 62.3 317.101 62.3L381.801 54.3Z" fill="#FF78B9"/>
<path d="M368.9 43C378.1 43 377.9 46.1 377.4 49.8C376.9 53.5 368.9 43 368.9 43Z" fill="black"/>
<path d="M383.301 18.2C372.808 15.8181 361.922 15.7499 351.401 18C347.206 19.0016 343.26 20.8485 339.804 23.4277C336.348 26.0069 333.454 29.2641 331.301 33C318.701 54.8 317.101 62.3 317.101 62.3L381.801 54.3C398.001 34 400.001 22.1 383.301 18.2ZM379.701 52.8L320.601 60.2C320.601 60.2 322.601 53.5 335.401 34C339.685 27.5255 346.319 22.9711 353.901 21.3C363.235 19.2971 372.895 19.3654 382.201 21.5C397.101 24.7 393.401 33.1 379.701 52.8Z" fill="#EB459F"/>
<path d="M383.701 116.9C406.201 114.5 423.801 117.4 416.601 162.1C414.701 173.8 413.101 184.3 411.601 193.4C425.701 205.9 424.001 227.6 413.101 239.3C402.201 251 388.601 242 381.001 227C373.401 212 367.101 196.3 367.101 196.3L383.701 116.9Z" fill="#459FF7"/>
<path d="M302.3 112.9C307.6 101.7 307.8 91.3001 307.6 82.0001C307.456 76.3867 308.444 70.8017 310.506 65.5787C312.567 60.3556 315.66 55.6015 319.6 51.6001C329.7 41.7001 340.8 40.2001 351 39.6001C369.3 38.4001 406.7 54.0001 393.9 116.5C386 155.1 374.5 200.1 374.5 200.1C374.5 200.1 413 270.6 336.9 270.6C279.8 270.6 265.7 263.6 258.4 243.6C253.333 229.451 253.263 213.995 258.2 199.8C276.7 145.5 289.7 139.6 302.3 112.9Z" fill="#459FF7"/>
<path d="M351.001 39.6C341.801 40.2 331.801 41.4 322.601 49H322.701C367.401 58.5 367.701 69.1 385.201 55.6C375.101 42.9 360.501 39 351.001 39.6Z" fill="#2A88E6"/>
<path d="M278.3 160.6L294.7 143.3C294.862 143.109 295.084 142.98 295.329 142.932C295.575 142.885 295.829 142.922 296.05 143.039C296.272 143.155 296.447 143.344 296.547 143.573C296.646 143.802 296.665 144.059 296.6 144.3C291.6 171.9 290.9 183.7 290.9 183.7L278.3 160.6Z" fill="black"/>
<path d="M348.8 53.1001C349.294 51.482 349.497 49.7891 349.4 48.1001" stroke="black" stroke-width="2" stroke-linecap="round" stroke-linejoin="round"/>
<path d="M350.2 53.6C351.182 52.1986 351.926 50.6443 352.4 49" stroke="black" stroke-width="2" stroke-linecap="round" stroke-linejoin="round"/>
<path d="M350.4 53.5C352.036 53.0999 353.592 52.4235 355 51.5" stroke="black" stroke-width="2" stroke-linecap="round" stroke-linejoin="round"/>
<path d="M373.601 55.2999C373.962 53.9651 374.064 52.5732 373.901 51.2" stroke="black" stroke-width="2" stroke-linecap="round" stroke-linejoin="round"/>
<path d="M375.101 55.6C375.819 54.4193 376.358 53.1387 376.701 51.8" stroke="black" stroke-width="2" stroke-linecap="round" stroke-linejoin="round"/>
<path d="M375.2 55.5999C376.526 55.1661 377.775 54.5248 378.9 53.7" stroke="black" stroke-width="2" stroke-linecap="round" stroke-linejoin="round"/>
<path d="M336.9 270.6C388 270.6 387.4 238.9 381.5 218C341.7 207.4 291 204.9 254.8 215.9C253.943 225.286 255.172 234.745 258.4 243.6C265.7 263.6 279.8 270.6 336.9 270.6Z" fill="#3442D9"/>
<path d="M358.901 283.8C357.087 283.263 355.495 282.156 354.361 280.643C353.226 279.13 352.609 277.291 352.601 275.4C352.601 258.8 352.701 212.8 355.901 182.9C361.201 142.6 384.101 144.8 393.401 147.2C408.801 151.2 412.201 165.1 407.601 189.6C403.001 214.1 401.001 240.5 402.901 271.8C403.066 274.338 402.379 276.858 400.947 278.96C399.516 281.062 397.423 282.625 395.001 283.4C382.501 287.5 371.601 287.6 358.901 283.8Z" fill="#3442D9"/>
<path d="M402.901 271.8L402.601 267.6C402.001 265.4 391.901 264.5 385.001 267.1C371.401 272.1 363.101 274.7 352.601 273.4V275.4C352.609 277.291 353.226 279.13 354.361 280.643C355.495 282.156 357.087 283.263 358.901 283.8C371.601 287.6 382.501 287.5 395.001 283.4C397.423 282.625 399.516 281.062 400.947 278.96C402.379 276.858 403.066 274.338 402.901 271.8Z" fill="#1D2CC2"/>
<path d="M356.4 279.4V293.2C356.356 294.675 356.814 296.12 357.7 297.3C361.1 302.1 366.2 303.1 370.5 303.4C372.484 303.478 374.385 304.217 375.9 305.5C383.3 311.4 386.2 313.3 402.8 313.2C421.3 313 417.3 305.9 416.5 300.9C418.6 294.6 420.2 283.3 399.9 284.3C398.344 280.873 396.539 277.564 394.5 274.4C383.3 274.1 374.6 282.6 356.4 279.4Z" fill="#FFC619"/>
<path d="M365 304.1C369.474 304.68 373.753 306.289 377.5 308.8C383.1 312.7 391.6 315.9 402.6 314.8C421.7 312.9 417.4 305.9 416.5 300.9C416.7 302.2 409.9 307.7 394.9 306.4C381.9 305.2 377.8 299.9 369.5 299.3C361.2 298.7 356.7 298.5 353.7 294.3C353.644 295.931 354.176 297.529 355.2 298.8C357.638 301.793 361.162 303.698 365 304.1Z" fill="black"/>
<path d="M399 282.4C393 282.7 383.8 283.5 383.7 283.5C383.444 283.547 383.213 283.684 383.048 283.885C382.884 284.087 382.796 284.34 382.8 284.6C382.862 284.821 382.992 285.017 383.172 285.161C383.351 285.304 383.571 285.388 383.8 285.4H383.9C384 285.4 394 284.5 399.9 284.3L399 282.4Z" fill="black"/>
<path d="M359 194.1C361.4 179 367.1 167.8 371.7 163.6" stroke="black" stroke-width="2" stroke-linecap="round" stroke-linejoin="round"/>
<path d="M360.901 281.4C362.094 280.576 363.041 279.442 363.64 278.121C364.239 276.8 364.467 275.341 364.301 273.9C361.001 241.3 360.301 199.9 360.001 174.1C359.701 148.3 347.501 147.2 337.901 147.2C328.301 147.2 319.801 147 311.201 159.6C302.601 172.2 284.501 192.4 263.101 253.1L315.401 246.1C315.401 259.2 314.401 269.4 315.201 282.5C315.289 283.755 315.758 284.953 316.544 285.936C317.33 286.918 318.396 287.638 319.601 288C335.001 293 351.101 288.3 360.901 281.4Z" fill="#3442D9"/>
<path d="M315 275.4C315 277.7 315.1 280 315.2 282.5C315.289 283.755 315.757 284.953 316.543 285.936C317.329 286.918 318.395 287.638 319.6 288C335 293 351.1 288.3 360.9 281.4C362.093 280.576 363.04 279.442 363.639 278.121C364.238 276.8 364.466 275.341 364.3 273.9C364 271.2 363.8 268.3 363.5 265.5C357.359 265.114 351.209 266.105 345.5 268.4C332.1 273.8 324.4 276.5 315 275.4Z" fill="#1D2CC2"/>
<path d="M361.901 281.4C363.094 280.576 364.041 279.442 364.64 278.121C365.239 276.8 365.467 275.341 365.301 273.9C362.401 245.2 361.501 210 361.101 184.3" stroke="black" stroke-width="2" stroke-linecap="round" stroke-linejoin="round"/>
<path d="M263.101 213.4C265.301 237.1 270.201 245.3 278.301 240.9C289.501 234.8 311.501 203.3 323.701 175.9C321.001 190.3 323.001 249.4 324.501 274.4C324.901 281.3 325.101 288.1 330.001 290.2" stroke="#1573D1" stroke-width="2" stroke-linecap="round" stroke-linejoin="round"/>
<path d="M355.023 73.9795C358.697 72.9675 360.296 67.1401 358.595 60.9637C356.894 54.7872 352.536 50.6005 348.862 51.6125C345.188 52.6245 343.589 58.4518 345.29 64.6283C346.992 70.8048 351.349 74.9915 355.023 73.9795Z" fill="white"/>
<path d="M332.4 65.7001C341.9 62.8001 352.9 65.9001 361.7 73.3001L355 77.6001L332.4 65.7001Z" fill="#459FF7"/>
<path d="M355.114 66.5779C356.764 66.1232 357.484 63.5101 356.722 60.7414C355.959 57.9726 354.003 56.0966 352.352 56.5513C350.701 57.0059 349.982 59.619 350.744 62.3878C351.507 65.1566 353.463 67.0325 355.114 66.5779Z" fill="black"/>
<path d="M381.659 73.603C384.433 72.4995 384.793 66.8583 382.463 61.003C380.134 55.1476 375.997 51.2955 373.223 52.399C370.45 53.5024 370.09 59.1437 372.419 64.999C374.749 70.8543 378.886 74.7064 381.659 73.603Z" fill="white"/>
<path d="M369.5 90C369.817 90.2055 370.19 90.3064 370.567 90.2884C370.943 90.2705 371.305 90.1346 371.6 89.9C383.5 81.2 389.7 80.6 389.7 90.7C389.7 100.8 381.8 116.3 368.5 116.3C355.2 116.3 342.7 108.9 338.3 95.9C333.9 82.9 342.3 78 350.7 80.2C359.1 82.4 366.6 87.9 369.5 90Z" fill="black"/>
<path d="M357 98.0001C360.5 95.3001 366.3 96.1001 370 98.8001C373.7 101.5 378.6 106.7 374.3 111.4C370 116.1 360.4 113.7 355.2 109.4C350 105.1 345.8 101.6 346.4 98.4001C347 95.2001 350.1 94.6001 357 98.0001Z" fill="#FF78B9"/>
<path d="M379.151 66.4859C380.281 66.0387 380.422 63.7196 379.467 61.3061C378.511 58.8927 376.821 57.2988 375.691 57.746C374.561 58.1933 374.42 60.5124 375.376 62.9259C376.331 65.3393 378.022 66.9332 379.151 66.4859Z" fill="black"/>
<path d="M325.9 72.9001C320.7 76.3001 314.1 83.4001 314.2 97.2001" stroke="#2A88E6" stroke-width="2" stroke-linecap="round" stroke-linejoin="round"/>
<path d="M315 270.2C316.1 224.8 320.1 166.2 320.1 166.2" stroke="black" stroke-width="2" stroke-linecap="round" stroke-linejoin="round"/>
<path d="M319.8 286.6V297C319.761 298.629 320.291 300.22 321.3 301.5C324 305 327.7 306.3 331.2 306.8C335.669 307.398 339.944 309.005 343.7 311.5C349.3 315.4 353.7 316.6 368.4 316.2C387.7 315.6 383.2 308.9 382.6 303.6C384.9 297.3 386.5 286 365.3 287.4C363.681 283.998 361.809 280.722 359.7 277.6C348 277.6 338.9 289.4 319.8 286.6Z" fill="#FFE75C"/>
<path d="M324.601 287C327.701 290.7 328.401 296.7 328.401 302.7C328.423 302.958 328.536 303.199 328.719 303.382C328.901 303.565 329.143 303.677 329.401 303.7H329.501C329.628 303.701 329.753 303.675 329.87 303.623C329.986 303.572 330.09 303.497 330.175 303.402C330.26 303.308 330.324 303.196 330.363 303.075C330.402 302.954 330.415 302.826 330.401 302.7C330.401 298.8 330.301 291.9 327.001 287H324.601Z" fill="#FFC619"/>
<path d="M318.7 190.2C321.003 181.634 324.398 173.4 328.8 165.7" stroke="black" stroke-width="2" stroke-linecap="round" stroke-linejoin="round"/>
<path d="M331.2 306.8C335.669 307.397 339.944 309.005 343.7 311.5C351.058 316.491 359.971 318.657 368.8 317.6C387.8 315.6 383.6 308.6 382.6 303.6C382.9 304.9 376.1 310.4 361.1 309.1C348.1 307.9 343.9 302.6 335.7 302C327.5 301.4 322.9 301.2 319.8 297C319.8 298.4 319.9 299.9 319.9 301.1C319.935 301.901 320.199 302.674 320.659 303.33C321.12 303.985 321.759 304.496 322.5 304.8C325.312 305.804 328.232 306.476 331.2 306.8Z" fill="black"/>
<path d="M364.4 285.5C358.4 285.8 349.2 286.6 349.1 286.6C348.903 286.676 348.735 286.812 348.619 286.989C348.504 287.166 348.448 287.375 348.459 287.586C348.47 287.797 348.548 287.999 348.681 288.164C348.814 288.328 348.996 288.446 349.2 288.5H349.3C349.4 288.5 359.4 287.6 365.3 287.4L364.4 285.5Z" fill="black"/>
<path d="M386.2 183.9C390.77 181.806 395.621 180.391 400.6 179.7" stroke="#4653DB" stroke-width="2" stroke-miterlimit="10" stroke-linecap="round"/>
<path d="M338.2 181.8C342.755 179.685 347.615 178.302 352.6 177.7" stroke="#4653DB" stroke-width="2" stroke-miterlimit="10" stroke-linecap="round"/>
<path d="M374.5 43C374.5 35.6 362.3 37.5 356 37.9C346.9 38.4 333.1 39.1 322.8 48.8V49C330.2 42.1 358 43 374.5 43Z" fill="#FF78B9"/>
<path d="M322.7 49C324.204 47.747 325.936 46.7963 327.8 46.2L329 44.2C329 42.3 328 41.9 327.2 42.5C326.4 43.1 324.5 46.1 322.8 48.8L322.7 49Z" fill="#EB459F"/>
<path d="M394 116.3C392.863 122.228 391.224 128.049 389.1 133.7C389.033 133.837 389.013 133.991 389.042 134.14C389.071 134.289 389.148 134.425 389.261 134.526C389.374 134.628 389.517 134.69 389.668 134.703C389.819 134.717 389.971 134.68 390.1 134.6C395 132.7 400.9 122.8 403.7 117.6C400.549 116.687 397.28 116.249 394 116.3Z" fill="black"/>
<path d="M43.8002 266.8C50.5761 268.612 57.6345 269.121 64.6002 268.3C68.2002 268 71.9002 267.8 75.5002 267.8C78.6174 267.962 81.7425 267.727 84.8002 267.1C85.3035 266.954 85.748 266.653 86.071 266.24C86.394 265.827 86.5791 265.324 86.6002 264.8V256.9L89.5002 247.9C89.6387 247.392 89.606 246.852 89.4072 246.364C89.2084 245.876 88.8545 245.467 88.4002 245.2C80.2002 240.5 73.1002 238.8 63.4002 238.8C62.8104 238.805 62.2359 238.989 61.7535 239.328C61.271 239.668 60.9036 240.146 60.7002 240.7C58.5002 246.6 57.0002 250.1 56.2002 251.9C55.962 252.43 55.6025 252.896 55.1509 253.26C54.6992 253.625 54.168 253.879 53.6002 254C48.2002 254.9 44.1002 254.3 42.4002 257.1C40.7002 259.9 40.7002 260.1 41.4002 264.1C41.5169 264.726 41.8021 265.308 42.225 265.784C42.6479 266.259 43.1925 266.611 43.8002 266.8Z" fill="#29CC7A"/>
<path d="M41.3005 263.6C48.3005 265.2 59.3005 267.3 59.0005 264.3C58.7005 261.3 55.9005 259.6 49.3005 259.4C42.7005 259.2 41.7005 258.2 42.4005 257.1C40.8005 259.7 40.7005 260.1 41.3005 263.6Z" fill="#57F287"/>
<path d="M128.8 214.5L101.2 205.6C95.1483 203.622 88.5664 204.057 82.8277 206.814C77.089 209.572 72.6368 214.439 70.4 220.4L58.5 251.7L82.3 260.7L93.9 230L120.9 238.8C124.055 239.616 127.403 239.197 130.26 237.63C133.118 236.063 135.269 233.464 136.277 230.365C137.285 227.266 137.072 223.899 135.683 220.951C134.293 218.003 131.832 215.696 128.8 214.5Z" fill="#FFD736"/>
<path d="M92.3 234.4L90.7 238.5L82.3 260.7L58.5 251.7L68.7 224.9C68.3 225.9 71.8 229.1 77.8 231.6C83.8 234.1 91.7 235.9 92.3 234.4Z" fill="white"/>
<path d="M76.2007 235.7C70.2007 233.2 66.8007 229.9 67.1007 229L65.5007 233.2C65.1007 234.2 68.6007 237.5 74.6007 239.9C80.6007 242.3 88.5007 244.3 89.1007 242.8L90.7007 238.5C90.2007 240 82.4007 238.2 76.2007 235.7Z" fill="#5865F2"/>
<path d="M87.7998 249L86.8998 248.6C86.6998 249.3 83.6998 249.5 73.1998 247.2C62.6998 244.9 61.9998 242.5 62.2998 241.7L60.7998 242.5L57.9998 249.5C57.4713 250.885 57.2673 252.372 57.4032 253.848C57.5391 255.324 58.0114 256.749 58.7839 258.014C59.5564 259.279 60.6084 260.35 61.8593 261.145C63.1102 261.94 64.5266 262.438 65.9998 262.6L81.7998 264.3L87.7998 249Z" fill="#29CC7A"/>
<path d="M75.5006 267.8C78.6177 267.962 81.7428 267.727 84.8006 267.1C85.3038 266.954 85.7484 266.653 86.0714 266.24C86.3944 265.827 86.5795 265.324 86.6006 264.8V263.2C83.4006 263.9 75.7006 263.3 71.5006 263.2C67.3006 263.1 58.5006 264.7 51.7006 264.3C44.9006 263.9 41.5006 262.9 41.1006 262.2C41.1604 262.839 41.2606 263.474 41.4006 264.1C41.5173 264.726 41.8024 265.308 42.2253 265.784C42.6482 266.259 43.1928 266.611 43.8006 266.8C50.5765 268.612 57.6348 269.121 64.6006 268.3C68.2006 268 71.9006 267.8 75.5006 267.8Z" fill="black"/>
<path d="M312.601 69.2C312.559 71.4489 312.931 73.6863 313.701 75.8C314.889 79.441 315.264 83.2982 314.801 87.1C314.674 88.0858 314.268 89.0148 313.63 89.7769C312.992 90.5389 312.149 91.1022 311.201 91.4L287.701 98.3C286.853 98.5502 285.947 98.5199 285.118 98.2135C284.29 97.9072 283.582 97.3412 283.101 96.6C280.001 91.7 276.901 81.5 278.801 71.3C278.983 70.4079 279.405 69.5826 280.022 68.9129C280.639 68.2432 281.427 67.7547 282.301 67.5L292.101 64.6C292.401 61.2 292.601 55.6 292.701 51.5C292.686 49.4614 293.422 47.4888 294.768 45.958C296.114 44.4273 297.977 43.4455 300.001 43.2L302.701 43C303.911 42.9906 305.103 43.2998 306.156 43.8966C307.209 44.4934 308.087 45.3567 308.701 46.4C312.101 52.5 312.901 59 312.601 69.2Z" fill="#29CC7A"/>
<path d="M302.7 43L300 43.2C298.038 43.4777 296.234 44.4328 294.9 45.9C296.5 43.9 300.9 46 301.3 49C301.7 52 302.3 58.4 303.6 61C304.097 62.0157 304.973 62.7951 306.04 63.1694C307.107 63.5437 308.278 63.4829 309.3 63C310.5 62.6 309.7 53.3 309 46.9L308.7 46.4C308.086 45.3567 307.209 44.4934 306.156 43.8966C305.102 43.2998 303.911 42.9906 302.7 43Z" fill="#57F287"/>
<path d="M245.6 159.8C244.725 159.799 243.853 159.699 243 159.5C239.973 158.807 237.341 156.949 235.675 154.328C234.009 151.707 233.443 148.535 234.1 145.5L246.1 92.2001C247.018 88.0566 249.093 84.2589 252.085 81.2493C255.077 78.2396 258.862 76.1418 263 75.2001L291.3 68.6001C292.797 68.2521 294.348 68.2024 295.865 68.4538C297.381 68.7051 298.833 69.2527 300.138 70.0652C301.442 70.8778 302.574 71.9393 303.468 73.1892C304.363 74.4392 305.002 75.853 305.35 77.3501C305.698 78.8472 305.748 80.3981 305.497 81.9144C305.245 83.4307 304.698 84.8826 303.885 86.1873C303.073 87.4919 302.011 88.6238 300.761 89.5182C299.511 90.4126 298.097 91.0521 296.6 91.4001L268.9 97.9001L257 150.6C256.448 153.211 255.013 155.551 252.936 157.227C250.86 158.903 248.269 159.812 245.6 159.8Z" fill="#FFD736"/>
<path d="M270.401 97.6001L296.601 91.4001C298.098 91.0521 299.512 90.4126 300.761 89.5182C302.011 88.6238 303.073 87.4919 303.885 86.1873C304.698 84.8826 305.246 83.4307 305.497 81.9144C305.748 80.3981 305.699 78.8472 305.351 77.3501C305.003 75.853 304.363 74.4392 303.469 73.1892C302.574 71.9393 301.442 70.8778 300.138 70.0652C298.833 69.2527 297.381 68.7051 295.865 68.4538C294.349 68.2024 292.798 68.2521 291.301 68.6001L265.601 74.6001C268.701 73.8001 273.701 80.3001 273.301 88.7001C272.901 97.1001 271.301 97.4001 270.401 97.6001Z" fill="white"/>
<path d="M275.9 72.2001L271 73.3001C274.1 72.6001 279.1 79.1001 278.7 87.4001C278.3 95.7001 276.7 96.1001 275.8 96.3001L280.7 95.2001C281.6 95.0001 283.3 94.6001 283.6 86.3001C283.9 78.0001 279 71.4001 275.9 72.2001Z" fill="#5865F2"/>
<path d="M267.401 169.3C273.401 219.6 233.001 263.6 176.701 263.6C120.401 263.6 76.8006 219.6 79.0006 169.3C81.0006 123.1 121.701 88.2 170.201 88.2C218.701 88.2 262.001 123.1 267.401 169.3Z" fill="#FF78B9"/>
<path d="M246.701 289.3C243.949 289.293 241.288 288.317 239.185 286.543C237.082 284.769 235.671 282.311 235.201 279.6C234.201 273.9 229.901 259.4 223.201 239.3C220.401 243.2 217.901 247 216.301 249.8C214.594 252.258 212.017 253.976 209.092 254.606C206.167 255.236 203.111 254.731 200.544 253.193C197.977 251.656 196.09 249.2 195.265 246.323C194.44 243.447 194.739 240.365 196.101 237.7C200.487 230.449 205.4 223.531 210.801 217C212.906 214.483 215.644 212.571 218.732 211.461C221.821 210.351 225.149 210.082 228.375 210.682C231.602 211.283 234.611 212.731 237.093 214.878C239.575 217.025 241.441 219.794 242.501 222.9C248.801 241.4 256.601 265.6 258.301 275.6C258.825 278.661 258.122 281.805 256.344 284.351C254.565 286.897 251.855 288.639 248.801 289.2L246.701 289.3Z" fill="#FFD736"/>
<path d="M242.5 222.9C241.459 219.789 239.601 217.016 237.12 214.87C234.64 212.723 231.628 211.283 228.4 210.7C225.536 210.168 222.586 210.316 219.79 211.132C216.993 211.949 214.428 213.411 212.3 215.4C218.2 216.4 221.3 218.8 224.2 223.8C225.167 225.495 226.563 226.905 228.248 227.888C229.934 228.871 231.849 229.393 233.8 229.4C237.721 229.382 241.615 230.059 245.3 231.4C244.4 228.5 243.4 225.6 242.5 222.9Z" fill="black"/>
<path d="M196.1 237.7C189.2 248.2 195.2 258 201.5 258.2C211.5 258.5 215.4 251 218.6 246.2L196.1 237.7Z" fill="#FFD736"/>
<path d="M246.701 289.3H248.801C251.855 288.739 254.565 286.997 256.344 284.451C258.122 281.905 258.825 278.761 258.301 275.7C257.101 268.5 252.701 253.9 248.001 239.5C247.401 237.9 245.101 235.8 237.901 237C230.701 238.2 224.501 243.4 225.201 245.4C230.701 262.4 234.301 274.6 235.201 279.7C235.692 282.393 237.112 284.828 239.213 286.582C241.314 288.336 243.963 289.298 246.701 289.3Z" fill="white"/>
<path d="M249.9 245.3C249.4 243.7 247.1 241.6 239.8 242.8C232.5 244 226.4 249.2 227.1 251.2L228.9 257.2C228.3 255.1 234.5 249.9 241.7 248.7C248.9 247.5 251.2 249.6 251.7 251.2L249.9 245.3Z" fill="#5865F2"/>
<path d="M263.5 306.3C248.1 306.3 244 301.4 240.1 293.6C240.1 293.6 233.5 292.8 231.2 288.9C230.882 288.317 230.71 287.665 230.7 287C230.8 284 231.2 279.6 231.2 279.6C231.2 279.6 230.7 277.1 229 271.1C228.772 270.278 228.861 269.4 229.25 268.64C229.639 267.881 230.299 267.295 231.1 267C237.5 264.5 248.9 261.3 256.6 263.3C257.277 263.447 257.894 263.792 258.375 264.29C258.855 264.789 259.177 265.419 259.3 266.1C260.1 269.1 261.4 274.7 262.2 278.2C263.4 283.2 263.7 283.4 270.6 287.7C277.5 292 278 294.7 276.8 300.2C275.6 305.7 272.7 306.3 263.5 306.3Z" fill="#29CC7A"/>
<path d="M276.8 300.2C277.6 296.5 277.7 294.1 275.5 291.6C276.2 292.6 275.2 293.3 272.2 293.6C269.2 293.9 262 294.4 255.9 292.2C249.8 290 246.5 288.7 244 295.3L241.5 296.2C242.82 298.844 244.822 301.088 247.3 302.7L268.1 306.2C273.8 306 275.9 304.8 276.8 300.2Z" fill="#57F287"/>
<path d="M222.2 239.2L218.4 228.3" stroke="black" stroke-width="2" stroke-linecap="round" stroke-linejoin="round"/>
<path d="M276.8 300.2L277.1 298.9C276.5 301.3 274.4 301.5 261 301.3C251.4 301.2 246.4 297.5 243.6 294.1C241.895 291.995 239.538 290.517 236.9 289.9C232 288.6 230.8 286.1 230.8 285.1C230.8 285.8 230.7 286.4 230.7 287C230.71 287.664 230.882 288.317 231.2 288.9C232.5 291.1 235.2 292.3 237.3 293C239.067 293.53 240.567 294.709 241.5 296.3C245.1 302.5 249.9 306.3 263.5 306.3C272.7 306.3 275.7 305.8 276.8 300.2Z" fill="black"/>
<path d="M96.2999 190.6C91.7999 179 93.4999 166.6 95.1999 156.3L79.2999 164.8L78.9999 169.3C78.8319 173.538 78.9655 177.782 79.3999 182C88.4999 189.6 98.8999 197.3 96.2999 190.6Z" fill="black"/>
<path d="M229 153.1C229.818 157.502 229.367 162.045 227.7 166.2" stroke="#F5479B" stroke-width="2" stroke-linecap="round" stroke-linejoin="round"/>
<path d="M248.4 201.5C248.353 189.29 247.215 177.108 245 165.1C244.396 161.729 245.107 158.254 246.985 155.39C248.863 152.526 251.767 150.49 255.1 149.7C257.456 149.171 259.925 149.558 262.005 150.784C264.086 152.01 265.621 153.982 266.3 156.3C271 172.8 272.9 192.9 272.6 208.8C272.2 227.5 260 229.3 247.5 226.8C239.1 225.1 207.7 217.3 188.6 212.5C186.648 212.013 184.818 211.126 183.228 209.894C181.638 208.663 180.321 207.113 179.361 205.345C178.402 203.577 177.821 201.629 177.656 199.624C177.49 197.619 177.743 195.602 178.4 193.7C179.023 191.853 180.015 190.152 181.316 188.7C182.616 187.248 184.198 186.075 185.965 185.252C187.732 184.429 189.648 183.974 191.596 183.913C193.545 183.853 195.485 184.188 197.3 184.9C216.8 192.4 233.9 198.4 248.4 201.5Z" fill="#FFD736"/>
<path d="M175.9 183.3C175.9 183.3 160.5 195.4 154.8 200.2C149.1 205 158.2 211.9 163.6 216.4C169 220.9 170 217.6 170.9 212.3L175.9 183.3Z" fill="#D11583"/>
<path d="M159.5 201.2C162.446 201.826 165.193 203.165 167.5 205.1" stroke="black" stroke-width="2" stroke-miterlimit="10" stroke-linecap="round"/>
<path d="M202.601 196.4C202.243 194.06 201.317 191.843 199.906 189.943C198.494 188.043 196.638 186.518 194.501 185.5C188.501 182.8 179.701 178.7 177.601 177.9C175.501 177.1 170.601 176 169.101 180.3C166.817 187.526 165.078 194.914 163.901 202.4C162.901 209.3 163.601 210.5 168.401 213.2C173.201 215.9 179.301 220.3 182.601 220.3C185.901 220.3 187.901 218 192.201 212C197.101 213.2 200.701 209.8 201.901 205.5C202.695 202.536 202.932 199.451 202.601 196.4Z" fill="#D11583"/>
<path d="M159.6 173.1C156.6 171.6 152.8 171.8 150.3 172.4C147.8 173 146.2 175.6 142 182.8C137.8 190 139.3 191.4 140.9 192.9C142.5 194.4 143.6 194.5 146.1 194.6C148.6 194.7 151.8 191.5 156 184.2C161.5 187.8 167.6 191.2 167.6 191.2L170.6 180.1C170.6 180.1 162.6 174.6 159.6 173.1Z" fill="#D11583"/>
<path d="M158.8 175.1C158.673 175.099 158.547 175.125 158.431 175.177C158.315 175.228 158.21 175.303 158.125 175.398C158.04 175.492 157.976 175.604 157.938 175.725C157.899 175.846 157.886 175.974 157.9 176.1C158.179 178.936 157.511 181.784 156 184.2L157.7 185.3C159.449 182.532 160.223 179.258 159.9 176C159.888 175.868 159.849 175.741 159.787 175.624C159.725 175.507 159.64 175.404 159.538 175.321C159.435 175.237 159.318 175.174 159.191 175.136C159.064 175.099 158.931 175.086 158.8 175.1Z" fill="black"/>
<path d="M176.8 218.2L174.6 216.9C174.009 216.595 173.527 216.113 173.222 215.522C172.918 214.93 172.805 214.259 172.9 213.6C173.024 212.256 173.224 210.921 173.5 209.6L173.7 208.6C174.3 205.7 175.8 197.7 177 189.7C177.026 189.539 177.091 189.386 177.189 189.256C177.288 189.126 177.416 189.022 177.564 188.952C177.712 188.883 177.875 188.852 178.038 188.86C178.201 188.868 178.36 188.916 178.5 189C178.684 189.086 178.833 189.231 178.924 189.413C179.015 189.595 179.042 189.801 179 190C177.8 198 176.2 206.1 175.7 208.9L175.5 210C174.6 214.8 174.3 216.5 176.8 218.2Z" fill="black"/>
<path d="M185.2 214.6C186.851 211.777 188.128 208.752 189 205.6C190.287 207.009 191.954 208.016 193.8 208.5" stroke="black" stroke-width="2" stroke-linecap="round" stroke-linejoin="round"/>
<path d="M189.5 281.9H138.3C135.056 281.901 131.884 280.94 129.186 279.138C126.487 277.336 124.384 274.774 123.142 271.777C121.9 268.779 121.576 265.481 122.209 262.299C122.842 259.116 124.405 256.194 126.7 253.9L138.6 242.1C140.823 240.091 143.726 239.003 146.722 239.057C149.717 239.11 152.58 240.3 154.73 242.387C156.88 244.473 158.156 247.299 158.299 250.291C158.442 253.283 157.441 256.218 155.5 258.5H189.5C191.037 258.5 192.558 258.803 193.978 259.391C195.397 259.979 196.687 260.84 197.774 261.927C198.86 263.013 199.722 264.303 200.31 265.723C200.898 267.142 201.2 268.664 201.2 270.2C201.2 271.736 200.898 273.258 200.31 274.677C199.722 276.097 198.86 277.387 197.774 278.473C196.687 279.56 195.397 280.421 193.978 281.009C192.558 281.597 191.037 281.9 189.5 281.9Z" fill="#FFD736"/>
<path d="M106.2 189.3L82.3003 171.3L89.2003 167.7C90.443 167.064 91.5388 166.175 92.4172 165.09C93.2956 164.005 93.937 162.748 94.3003 161.4C95.6025 156.605 95.7736 151.573 94.8003 146.7C94.5371 145.553 93.8348 144.554 92.844 143.919C91.8533 143.283 90.6529 143.061 89.5003 143.3L85.6003 144.1C75.1003 146.3 55.8003 149.6 52.0003 165.3C48.6003 179.2 55.8003 187.2 64.0003 193.7L88.5003 212.7C90.6633 214.363 93.2491 215.387 95.9644 215.656C98.6798 215.924 101.416 215.426 103.863 214.218C106.309 213.01 108.369 211.141 109.807 208.823C111.245 206.504 112.005 203.829 112 201.1C112.032 198.815 111.523 196.555 110.515 194.505C109.507 192.454 108.028 190.671 106.2 189.3Z" fill="#FFD736"/>
<path d="M110.3 189.3L116.8 185.5C117.678 184.978 118.68 184.702 119.7 184.7H120.8C122.163 184.703 123.481 185.186 124.523 186.063C125.565 186.941 126.265 188.158 126.5 189.5C127.2 193.5 126.9 198 129.3 203.1L121.5 208.2L100 206.9L92.4004 203.4L106.9 188.8L110.3 189.3Z" fill="#D11583"/>
<path d="M116.8 196C109.9 199.7 109.5 199.9 110.3 207.1L118 202.5L116.8 196Z" fill="#FF78B9"/>
<path d="M116.101 190.6C116.701 194.3 117.401 198.5 119.901 202.3" stroke="black" stroke-width="2" stroke-miterlimit="10" stroke-linecap="round"/>
<path d="M111.6 206.7L104.3 204.5" stroke="black" stroke-width="2" stroke-miterlimit="10" stroke-linecap="round"/>
<path d="M220.4 115.5C216.5 105.3 207 96.6001 199 96.1001H198C194.4 96.1001 192 98.1001 188.8 102C188.058 102.886 187.015 103.468 185.872 103.634C184.728 103.8 183.563 103.539 182.6 102.9C178.1 99.7001 171.1 96.3001 163.6 96.3001C156.1 96.3001 148.4 104.7 149.9 115.1C151.4 125.5 160 133.8 169 133.8H170.9C176.4 133.1 182.3 129.5 188.1 123.9C188.779 123.265 189.653 122.88 190.58 122.807C191.506 122.734 192.43 122.979 193.2 123.5C202.6 130.4 209.6 133.2 212.9 133.2C220.8 133.5 224.2 125.7 220.4 115.5Z" fill="white"/>
<path d="M174.914 132.623C182.75 128.784 185.262 117.832 180.524 108.16C175.786 98.4889 165.592 93.7608 157.756 97.5997C149.92 101.439 147.408 112.391 152.146 122.062C156.884 131.734 167.078 136.462 174.914 132.623Z" fill="white"/>
<path d="M218.529 131.24C223.982 127.189 222.771 116.322 215.823 106.967C208.875 97.6112 198.821 93.3106 193.368 97.3608C187.914 101.411 189.126 112.278 196.074 121.634C203.021 130.989 213.075 135.29 218.529 131.24Z" fill="white"/>
<path d="M209.8 100.9C207.356 99.5576 204.672 98.7082 201.9 98.4H200.8C196.7 98.4 194 100.5 190.4 104.7C189.561 105.699 188.383 106.353 187.091 106.538C185.8 106.723 184.485 106.424 183.4 105.7C178.3 102.3 170.5 98.5 162 98.5C158.769 98.4921 155.619 99.5073 153 101.4C154.225 99.7521 155.827 98.4206 157.67 97.5161C159.514 96.6117 161.547 96.1605 163.6 96.2C171.1 96.2 178.1 99.6 182.6 102.8C183.563 103.439 184.728 103.7 185.872 103.534C187.016 103.368 188.058 102.786 188.8 101.9C192 98 194.4 96 198 96H199C202.5 96.3 206.3 98.1 209.8 100.9Z" fill="#C9EDFF"/>
<path d="M173.874 117.661C176.205 116.519 176.775 112.9 175.147 109.577C173.519 106.254 170.31 104.486 167.979 105.628C165.647 106.77 165.077 110.389 166.705 113.712C168.333 117.035 171.543 118.803 173.874 117.661Z" fill="black"/>
<path d="M206.462 117.44C208.545 116.419 208.914 112.898 207.286 109.575C205.658 106.252 202.65 104.386 200.567 105.406C198.484 106.427 198.115 109.948 199.743 113.271C201.37 116.594 204.379 118.46 206.462 117.44Z" fill="black"/>
<path d="M157.1 150C143.9 145.7 137.2 139.5 133.4 131.9C133.083 131.305 132.637 130.789 132.094 130.39C131.551 129.991 130.925 129.719 130.262 129.594C129.6 129.469 128.918 129.495 128.267 129.669C127.616 129.843 127.012 130.161 126.5 130.6C126.029 130.996 125.644 131.484 125.369 132.034C125.093 132.584 124.934 133.185 124.9 133.8C124.3 150.1 139.2 167 151.7 168.5C159.5 169.4 163.1 166.1 164.1 162C164.665 159.485 164.258 156.85 162.959 154.624C161.661 152.398 159.567 150.746 157.1 150Z" fill="white"/>
<path d="M171.801 219.4V231.3C171.801 238.5 166.601 242.8 160.301 241C155.601 239.6 151.401 235.3 149.601 230L147.801 224.4L139.001 221.9L137.201 226.4C136.413 228.434 134.873 230.088 132.9 231.019C130.927 231.95 128.672 232.086 126.601 231.4C120.201 229.6 115.101 222.3 115.101 215.2V203.2C115.101 198.6 118.401 195.8 122.501 197L164.301 208.9C168.401 210 171.801 214.8 171.801 219.4Z" fill="white"/>
<path d="M161.801 244.6L168.001 239.8L166.101 230.7L160.601 235.6L161.801 244.6Z" fill="white"/>
<path d="M111.3 202.5L117.5 197.7L124.9 199.8L119.5 204.7L111.3 202.5Z" fill="white"/>
<path d="M128.2 234.9L134.3 230.2L132.4 221L127 226L128.2 234.9Z" fill="white"/>
<path d="M165.5 224.2V236.1C165.5 243.3 160.4 247.6 154 245.8C149.4 244.4 145.2 240.1 143.4 234.7L141.6 229.2L132.8 226.7L131 231.2C129.2 235.5 125 237.5 120.3 236.1C114 234.3 108.8 227.1 108.8 220V208C108.8 203.4 112.2 200.6 116.3 201.7L158.1 213.7C162.2 214.8 165.5 219.5 165.5 224.2Z" fill="#8CD9FF"/>
<path d="M177.67 136.769C188.058 130.151 189.959 114.554 181.917 101.931C173.876 89.3082 158.936 84.4397 148.549 91.057C138.162 97.6744 136.26 113.272 144.302 125.895C152.344 138.518 167.283 143.386 177.67 136.769Z" stroke="#5865F2" stroke-width="2" stroke-miterlimit="10"/>
<path d="M226.84 138.244C237.284 133.33 240.661 118.529 234.382 105.187C228.104 91.8439 214.547 85.0117 204.103 89.9264C193.659 94.8411 190.282 109.641 196.561 122.984C202.839 136.327 216.396 143.159 226.84 138.244Z" stroke="#5865F2" stroke-width="2" stroke-miterlimit="10"/>
<path d="M117.6 209.2L104.4 205.4L95.2002 202.7L110.3 189.3L106.9 188.8C103.89 188.317 100.806 188.657 97.9735 189.784C95.1412 190.911 92.6663 192.783 90.8112 195.201C88.956 197.62 87.7897 200.496 87.4357 203.524C87.0816 206.551 87.5531 209.618 88.8002 212.4L89.7002 214.5V220.8C89.6918 222.836 90.2015 224.84 91.1811 226.624C92.1608 228.409 93.5782 229.914 95.3002 231C100.6 234.4 105 236.5 109.4 243.6C110.8 246 112 246.2 113.8 246.2C115.6 246.2 117 244.5 117 241.9C117 239.3 116.7 238.4 114.5 235.8L112.6 233.6L116.2 234.6C116.833 234.778 117.496 234.818 118.145 234.717C118.794 234.617 119.415 234.379 119.964 234.019C120.514 233.659 120.98 233.185 121.331 232.63C121.682 232.075 121.91 231.451 122 230.8C123.1 223.7 122.8 217.5 121.5 213.1C121.251 212.164 120.759 211.311 120.074 210.626C119.39 209.941 118.536 209.449 117.6 209.2Z" fill="#D11583"/>
<path d="M112.3 234.3C106.995 232.285 101.819 229.947 96.7998 227.3" stroke="black" stroke-width="2" stroke-miterlimit="10" stroke-linecap="round"/>
<path d="M116.4 222.5L112.8 221C108.9 219.4 103.1 217 95.7003 214.6C95.475 214.537 95.2341 214.565 95.0288 214.677C94.8234 214.789 94.6698 214.977 94.6003 215.2C94.5324 215.413 94.5459 215.643 94.6383 215.846C94.7307 216.05 94.8954 216.211 95.1003 216.3C100.869 218.114 106.543 220.216 112.1 222.6L115.8 224.1C116.79 224.483 117.839 224.686 118.9 224.7C119.686 224.721 120.468 224.585 121.2 224.3C121.648 224.105 122.028 223.783 122.294 223.374C122.561 222.966 122.702 222.488 122.7 222C122.716 221.697 122.682 221.393 122.6 221.1C120.5 223.5 118.4 223.2 116.4 222.5Z" fill="black"/>
<path d="M82.3 171.3L84.1 170.4L78.4 166.1C78.3015 166.028 78.1897 165.976 78.0711 165.947C77.9525 165.918 77.8293 165.912 77.7086 165.931C77.5878 165.949 77.472 165.991 77.3675 166.055C77.2631 166.118 77.1722 166.201 77.1 166.3C77.0277 166.398 76.9756 166.51 76.9466 166.629C76.9176 166.747 76.9122 166.871 76.9307 166.991C76.9493 167.112 76.9915 167.228 77.0548 167.332C77.1182 167.437 77.2015 167.528 77.3 167.6L82.3 171.3Z" fill="black"/>
<path d="M156.3 257.5C149 257.5 141.9 257.5 136.2 260.9" stroke="black" stroke-width="2" stroke-linecap="round" stroke-linejoin="round"/>
<path d="M282 70.7C285.1 70 290.1 76.5 289.7 84.8C289.3 93.1 287.7 93.5 286.8 93.7C285.9 93.9 286.7 95.1 286.7 95.1L301.1 92.6L308.3 85.5V68.3L295.8 65L283.6 68.3L282 70.7Z" fill="#29CC7A"/>
<path d="M268.9 97.9001L265.2 95.1001" stroke="black" stroke-width="2" stroke-miterlimit="10" stroke-linecap="round"/>
<path d="M248.4 201.5L255 202.7" stroke="black" stroke-width="2" stroke-linecap="round" stroke-linejoin="round"/>
<path d="M184.9 106.2H193.5" stroke="#5865F2" stroke-width="2" stroke-miterlimit="10"/>
<path d="M157.2 150C156.054 156.459 153.678 162.638 150.2 168.2L148.2 167.7C151.894 162.201 154.319 155.951 155.3 149.4L157.1 150H157.2Z" fill="#B3E5FF"/>
<path d="M133.8 132.6C130.441 133.929 127.48 136.098 125.2 138.9C125.084 138.038 125.017 137.17 125 136.3C127.178 133.98 129.841 132.171 132.8 131L133.4 131.9L133.8 132.6Z" fill="#B3E5FF"/>
<path d="M138.2 138.9C134.761 142.229 131.647 145.879 128.9 149.8L127.9 147.9C130.612 144.165 133.658 140.684 137 137.5L138.2 138.9Z" fill="#B3E5FF"/>
<path d="M147.2 145.8L137.6 161.2L136.2 159.8L145.6 144.9L147.2 145.8Z" fill="#B3E5FF"/>
<path d="M122.9 129.4C126.258 128.746 129.724 128.917 133 129.9" stroke="black" stroke-width="2" stroke-miterlimit="10" stroke-linecap="round"/>
<path d="M311.2 91.4C312.148 91.1022 312.991 90.5389 313.629 89.7769C314.267 89.0148 314.674 88.0858 314.8 87.1C315.264 83.2982 314.888 79.441 313.7 75.8C312.931 73.6863 312.558 71.4489 312.6 69.2C312.9 59 312.1 52.5 308.7 46.4C308.086 45.3567 307.208 44.4934 306.155 43.8966C305.102 43.2998 303.91 42.9906 302.7 43L300 43.2L298 43.7C301.5 42.5 305.3 45.1 306.9 52.9C309.2 64.2 307.4 66.6 308.5 72.1C309.6 77.6 311.6 84.3 310 91.8L311.2 91.4Z" fill="black"/>
<path d="M187.201 259.6C187.54 258.767 188.122 258.055 188.871 257.556C189.62 257.056 190.501 256.793 191.401 256.8H202.701C205.501 256.8 208.001 258.4 208.701 260.7L208.901 261C209.776 264.08 211.774 266.721 214.501 268.4C220.001 272 223.601 276.1 224.301 281.1C225.301 287.9 224.601 293.7 218.001 295.6C211.401 297.5 210.301 293.5 200.501 287.1C198.664 285.874 196.508 285.214 194.301 285.2H191.301C190.505 285.195 189.725 284.98 189.04 284.576C188.355 284.172 187.789 283.594 187.401 282.9C184.101 276.7 183.901 267.9 187.201 259.6Z" fill="#29CC7A"/>
<path d="M211.2 294.6C212.168 295.304 213.293 295.763 214.477 295.937C215.662 296.112 216.871 295.996 218 295.6C224.4 293.7 225.2 288.2 224.4 281.7C221.2 276.5 216.9 270.4 213.7 270.4C208.1 270.3 211.2 274.6 213.1 277.2C215 279.8 215.7 284.6 215.6 288.4C215.5 292.2 213.9 296.3 211.2 294.6Z" fill="#57F287"/>
<path d="M207 262C207.178 263.663 207.729 265.264 208.612 266.684C209.495 268.104 210.687 269.306 212.1 270.2C214.574 271.891 216.651 274.1 218.187 276.672C219.724 279.245 220.684 282.12 221 285.1C221.7 291.1 220 295 217.4 295.8C225 294 225.2 287.2 224.3 281.1C223.4 275 220 272 214.5 268.4C211.774 266.721 209.775 264.08 208.9 261L208.7 260.7C208 258.4 205.5 256.8 202.7 256.8C204.5 257 206.7 259.1 207 262Z" fill="black"/>
<path d="M164.9 270.4C164.9 277.9 161.9 281.9 159.9 281.9H193C196.103 281.9 199.079 280.667 201.274 278.473C203.468 276.279 204.7 273.303 204.7 270.2C204.7 267.097 203.468 264.121 201.274 261.927C199.079 259.733 196.103 258.5 193 258.5H159.9C161.8 258.5 164.9 262.9 164.9 270.4Z" fill="white"/>
<path d="M172.1 258.5H164.9C166.8 258.5 170 262.9 170 270.4C170 277.9 166.9 281.9 164.9 281.9H172.1C174.1 281.9 177.2 277.9 177.2 270.4C177.2 262.9 174 258.5 172.1 258.5Z" fill="#5865F2"/>
<path d="M190.2 258.5C192.5 258.5 196.5 262.9 196.5 270.4C196.5 277.9 192.7 281.9 190.2 281.9V283.3H209.9L207.5 267.6L203.4 258.5L193.1 257.5L190.2 258.5Z" fill="#29CC7A"/>
<path d="M286.9 45.3L277.2 43" stroke="#8CD9FF" stroke-width="2" stroke-linecap="round" stroke-linejoin="round"/>
<path d="M292.701 38.2L289.101 34.5" stroke="#8CD9FF" stroke-width="2" stroke-linecap="round" stroke-linejoin="round"/>
<path d="M419.1 254.2C415.807 250.532 412.985 246.467 410.7 242.1L399.5 241.8C402.206 248.11 405.997 253.898 410.7 258.9C413.2 261.4 416.9 263 419.1 260.7C421.3 258.4 421.3 256.6 419.1 254.2Z" fill="#FF78B9"/>
<path d="M315 121.9C297.4 109.5 282 90.4998 263.1 111.6C244.2 132.7 233 150.5 225.9 163.3C218.8 176.1 229.4 184.5 244.1 195.1C255.4 203.2 277.9 223.1 293 211C297.7 207.2 303.5 196.6 305.7 186.1C307.9 175.6 300.2 168.5 278.3 160.6L315 121.9Z" fill="#459FF7"/>
<path d="M305.7 186.1C308 175.6 300.2 168.4 278.3 160.6C263 155.2 262 155.1 262 155.1" stroke="black" stroke-width="2" stroke-linecap="round" stroke-linejoin="round"/>
<path d="M303.6 112.9L319.5 125.1" stroke="black" stroke-width="2" stroke-linecap="round" stroke-linejoin="round"/>
<path d="M305 177.6C294.7 179.5 285.3 189 282.8 200.5C282.771 200.618 282.766 200.741 282.785 200.862C282.805 200.982 282.849 201.097 282.914 201.2C282.98 201.303 283.065 201.391 283.166 201.46C283.267 201.529 283.38 201.576 283.5 201.6C283.75 201.63 284.003 201.564 284.207 201.416C284.411 201.267 284.551 201.047 284.6 200.8C287 190 295.9 181 305.6 179.4C305.445 178.786 305.245 178.184 305 177.6Z" fill="black"/>
<path d="M322.117 214.979C329.861 203.838 328.833 189.728 319.821 183.464C310.809 177.199 297.225 181.152 289.481 192.293C281.737 203.434 282.765 217.543 291.777 223.808C300.789 230.072 314.373 226.12 322.117 214.979Z" fill="#459FF7"/>
<path d="M342.5 213.2L333.1 226.1C338.5 234.4 339.4 237.6 339.4 237.6C348.7 239 351.3 239.5 350.5 244C349.7 248.5 348.2 248.9 343.2 248.4L333.1 247.6C330.5 247.5 328.9 246.3 326.2 241.4L321.4 232.4C322.6 243.7 323.8 248.7 319.8 252.1C315.8 255.5 312.2 253.5 311 251.4C309.8 249.3 310.1 247.1 310.4 241.1C310.6 238.8 310.6 236.9 310.7 235.4C310.722 232.475 309.773 229.626 308 227.3C305.871 224.707 303.493 222.329 300.9 220.2C299.913 219.333 299.179 218.216 298.774 216.966C298.369 215.716 298.309 214.381 298.6 213.1C300.7 204.7 304.6 198.9 309.8 195.8C311.9 194.572 314.279 193.899 316.711 193.847C319.144 193.794 321.549 194.363 323.7 195.5L331.5 199.4C332.566 199.989 333.799 200.2 335 200C342.4 199 345.8 197.1 348.4 195.4C351 193.7 354.3 192.3 357.4 196.7C360.5 201.1 355.7 204.9 350.1 208.7C344.5 212.5 342.5 213.2 342.5 213.2Z" fill="#FF78B9"/>
<path d="M339 213.9C337.797 212.165 336.459 210.526 335 209" stroke="black" stroke-width="2" stroke-linecap="round" stroke-linejoin="round"/>
<path d="M409.1 247.4C412.5 247.9 413.6 248.2 415.4 245.7C417.2 243.2 417.3 238.6 417.3 238.6C422 238.9 422.5 233.6 422.6 229.8C422.7 226 419.5 224.6 414 221.1C414 210.7 414.2 208.1 410 206.3C405.8 204.5 402.7 203 400.4 205.9C398.1 208.8 392.4 216.8 392.4 216.8L409.1 247.4Z" fill="#FF78B9"/>
<path d="M406.5 223.3L415.7 224.7" stroke="black" stroke-width="2" stroke-linecap="round" stroke-linejoin="round"/>
<path d="M404 219.4L408.9 211.4" stroke="black" stroke-width="2" stroke-linecap="round" stroke-linejoin="round"/>
<path d="M403.4 220.4L399.1 231.8C396.4 238.9 388.4 244 381 243.2C374.8 242.5 371 237.6 371.9 231.5L372.4 228.2L361.5 226.9L359.6 230.1C356 235.9 349 239.6 342.8 238.9C335.5 238 331.7 231.6 334.4 224.5L338.6 213.1C339.519 210.845 341.124 208.935 343.188 207.643C345.252 206.351 347.67 205.741 350.1 205.9L398 211.3C402.7 211.8 405.1 215.9 403.4 220.4Z" fill="white"/>
<path d="M335.9 235.5L339.6 239.6L342.5 233.2L336.4 232.9L335.9 235.5Z" fill="white"/>
<path d="M374.3 240L378 244.1L380.6 238.7L374.5 236.6L374.3 240Z" fill="white"/>
<path d="M406 217.5L402.3 213.4H397.2L400.9 222L406 217.5Z" fill="white"/>
<path d="M407.1 224.6L402.8 236C400.2 243.1 392.1 248.2 384.8 247.4C378.5 246.7 374.7 241.8 375.6 235.7L376.1 232.3L365.2 231.1L363.3 234.3C359.8 240.1 352.8 243.7 346.5 243C339.2 242.2 335.4 235.8 338.1 228.7L342.3 217.3C343.231 215.054 344.838 213.153 346.899 211.863C348.96 210.572 351.372 209.956 353.8 210.1L401.7 215.5C406.4 216 408.8 220.1 407.1 224.6Z" fill="#8CD9FF"/>
<path d="M335.6 211.2C338.335 214.209 340.842 217.418 343.1 220.8C352 221.9 356.9 222.6 358.6 223.6C360.3 224.6 361.3 225.2 360.2 229.2C359.1 233.2 357.4 234.3 353.1 233.7C348.8 233.1 340.4 232.4 338.3 231.6C336.2 230.8 335.2 229.7 330.6 224.4C326 219.1 328.3 213.9 335.6 211.2Z" fill="#FF78B9"/>
<path d="M414.9 225.7C409.743 224.559 404.482 223.956 399.2 223.9C394.7 224 394.1 225.9 392.8 229.6C391.5 233.3 394.2 235.4 399 235.9C403.8 236.4 413 237.8 413 237.8L414.9 225.7Z" fill="#FF78B9"/>
<path d="M410.7 237C406.273 235.971 401.745 235.434 397.2 235.4C393.3 235.5 392.8 237.2 391.7 240.3C390.6 243.4 392.9 245.3 397 245.8C401.1 246.3 409.1 247.4 409.1 247.4L410.7 237Z" fill="#FF78B9"/>
<path d="M357 96.8999C362.198 99.2162 366.811 102.667 370.5 107" stroke="black" stroke-width="2" stroke-linecap="round" stroke-linejoin="round"/>
<path d="M231.1 173.8C227.1 161.6 217.4 151.8 209.5 151.8L230.1 192.9C233.2 189.1 233.8 182 231.1 173.8Z" fill="#FF78B9"/>
<path d="M216.7 154.2C222.6 157.8 228.3 165.2 231.1 173.8C233.4 180.8 233.3 187 231.3 191" stroke="#F5479B" stroke-width="2" stroke-linecap="round" stroke-linejoin="round"/>
<path d="M332.5 227.3C329.523 223.444 326.318 219.771 322.9 216.3" stroke="black" stroke-width="2" stroke-linecap="round" stroke-linejoin="round"/>
<path d="M321.1 233.9C319.629 231.416 318.026 229.013 316.3 226.7" stroke="black" stroke-width="2" stroke-linecap="round" stroke-linejoin="round"/>
<path d="M326.8 201.6C323.9 201.7 320.7 202.7 319.1 208.9C318.958 209.406 318.676 209.862 318.287 210.216C317.898 210.57 317.418 210.807 316.9 210.9C313.9 211.4 312.3 213.4 312.1 217.9C312.082 218.143 311.984 218.373 311.821 218.553C311.658 218.734 311.44 218.856 311.2 218.9C309.3 219.2 307.8 220.7 309 225.2" stroke="#F5479B" stroke-width="2" stroke-linecap="round" stroke-linejoin="round"/>
<path d="M398.2 236.1C402.5 236.9 412 238.4 415.4 238.4" stroke="black" stroke-width="2" stroke-linecap="round" stroke-linejoin="round"/>
<path d="M460.899 179.1C459.33 178.108 457.992 176.792 456.974 175.239C455.957 173.687 455.283 171.934 454.999 170.1L454.099 163.8C453.966 163.4 453.766 163.2 453.499 163.2C453.33 163.198 453.165 163.258 453.037 163.368C452.908 163.479 452.824 163.632 452.799 163.8L451.899 170.1C451.615 171.922 450.952 173.664 449.953 175.214C448.954 176.765 447.641 178.088 446.099 179.1L445.199 179.6C445.026 179.754 444.918 179.969 444.899 180.2C444.941 180.395 445.047 180.571 445.199 180.7L446.099 181.3C447.641 182.312 448.954 183.635 449.953 185.186C450.952 186.736 451.615 188.478 451.899 190.3L452.799 196.6C452.824 196.768 452.908 196.921 453.037 197.032C453.165 197.142 453.33 197.202 453.499 197.2C453.799 197.2 453.999 196.9 454.099 196.6L454.999 190.3C455.283 188.466 455.957 186.713 456.974 185.161C457.992 183.608 459.33 182.292 460.899 181.3L461.699 180.7C461.795 180.658 461.876 180.588 461.93 180.498C461.984 180.409 462.008 180.304 461.999 180.2C462.015 180.081 461.995 179.961 461.941 179.854C461.888 179.747 461.804 179.659 461.699 179.6L460.899 179.1Z" fill="#5865F2"/>
<path d="M32.4995 229.8C31.1535 228.937 30.0098 227.793 29.1468 226.447C28.2838 225.1 27.7219 223.584 27.4995 222L26.6995 216.6C26.6452 216.485 26.5607 216.387 26.455 216.317C26.3493 216.246 26.2264 216.206 26.0995 216.2C25.8995 216.2 25.5995 216.4 25.5995 216.6L24.7995 222C24.5526 223.576 23.9806 225.083 23.1198 226.426C22.259 227.769 21.1283 228.918 19.7995 229.8L19.0995 230.2C19.0035 230.241 18.9229 230.312 18.8691 230.402C18.8153 230.491 18.791 230.596 18.7995 230.7C18.7995 230.9 18.8995 231 19.0995 231.1L19.7995 231.6C21.1254 232.462 22.2555 233.593 23.1168 234.919C23.9781 236.246 24.5513 237.738 24.7995 239.3L25.5995 244.7C25.5995 244.833 25.6522 244.96 25.746 245.054C25.8398 245.147 25.9669 245.2 26.0995 245.2C26.2428 245.202 26.382 245.153 26.492 245.061C26.6021 244.969 26.6757 244.841 26.6995 244.7L27.4995 239.3C27.7227 237.73 28.2857 236.228 29.1493 234.898C30.0129 233.568 31.1562 232.442 32.4995 231.6L33.1995 231.1C33.2616 231.053 33.312 230.993 33.3468 230.924C33.3815 230.854 33.3995 230.778 33.3995 230.7C33.3927 230.515 33.322 230.338 33.1995 230.2L32.4995 229.8Z" fill="#57F287"/>
<path d="M432.399 64.5C431.608 63.9595 430.934 63.2645 430.419 62.4568C429.903 61.649 429.556 60.7453 429.399 59.7999L428.899 56.5C428.874 56.431 428.834 56.3684 428.783 56.3166C428.731 56.2647 428.668 56.2249 428.599 56.2C428.52 56.2 428.443 56.2316 428.387 56.2878C428.331 56.3441 428.299 56.4204 428.299 56.5L427.799 59.7999C427.642 60.7573 427.285 61.6707 426.75 62.4805C426.216 63.2904 425.517 63.9785 424.699 64.5L424.299 64.8C424.199 64.8 424.199 64.9 424.199 65C424.199 65.2 424.199 65.3 424.299 65.3L424.699 65.5999C425.517 66.1214 426.216 66.8095 426.75 67.6194C427.285 68.4292 427.642 69.3426 427.799 70.3L428.299 73.5999C428.299 73.6999 428.399 73.8 428.599 73.8C428.699 73.8 428.899 73.6999 428.899 73.5999L429.399 70.3C429.556 69.3546 429.903 68.4509 430.419 67.6431C430.934 66.8354 431.608 66.1404 432.399 65.5999L432.799 65.3C432.899 65.3 432.999 65.2 432.999 65L432.799 64.8L432.399 64.5Z" fill="#FF78B9"/>
<path d="M89.7993 94.7C88.5032 93.8728 87.4025 92.7736 86.5736 91.4785C85.7448 90.1834 85.2076 88.7235 84.9993 87.2L84.1993 82C84.1993 81.8674 84.1467 81.7402 84.0529 81.6464C83.9591 81.5527 83.8319 81.5 83.6993 81.5C83.5667 81.5 83.4396 81.5527 83.3458 81.6464C83.252 81.7402 83.1993 81.8674 83.1993 82L82.3993 87.2C82.1722 88.7176 81.6273 90.1701 80.8001 91.4625C79.973 92.7549 78.8823 93.8582 77.5993 94.7L76.8993 95.1C76.8033 95.1415 76.7227 95.212 76.6689 95.3017C76.6151 95.3914 76.5908 95.4957 76.5993 95.6C76.5993 95.8 76.6993 95.9 76.8993 96L77.5993 96.5C78.8794 97.3214 79.9696 98.4064 80.7973 99.6824C81.625 100.958 82.1712 102.396 82.3993 103.9L83.1993 109.1C83.1993 109.233 83.252 109.36 83.3458 109.454C83.4396 109.547 83.5667 109.6 83.6993 109.6C83.8319 109.6 83.9591 109.547 84.0529 109.454C84.1467 109.36 84.1993 109.233 84.1993 109.1L84.9993 103.9C85.2083 102.39 85.7465 100.945 86.576 99.6659C87.4055 98.3872 88.5059 97.3064 89.7993 96.5L90.4993 96C90.5614 95.9534 90.6118 95.893 90.6466 95.8236C90.6813 95.7542 90.6993 95.6776 90.6993 95.6C90.6925 95.4152 90.6218 95.2385 90.4993 95.1L89.7993 94.7Z" fill="#66BCFF"/>
</svg>
