<svg width="480" height="330" viewBox="0 0 480 330" fill="none" xmlns="http://www.w3.org/2000/svg">
<path d="M88.8994 321.6H102.299L116.199 288.5H88.8994V321.6Z" fill="#8CD9FF"/>
<path d="M116.199 288.5L110.599 301.8L88.8994 301.7V288.5H116.199Z" fill="black"/>
<path d="M397.3 321.6H384L370 288.5H397.3V321.6Z" fill="#8CD9FF"/>
<path d="M370 288.5L375.6 301.7H397.3V288.5H370Z" fill="black"/>
<path d="M375.6 321.6H362.2L348.3 288.5H375.6V321.6Z" fill="#B0E5FF"/>
<path d="M63.6998 205.1H138.5V288.5H67.0998C63.3072 288.5 59.6699 286.993 56.9882 284.312C54.3064 281.63 52.7998 277.993 52.7998 274.2V216C52.7998 213.109 53.9482 210.337 55.9923 208.293C58.0365 206.248 60.8089 205.1 63.6998 205.1Z" fill="#5865F2"/>
<path d="M80.5 216C80.5 213.109 81.6484 210.337 83.6925 208.293C85.7367 206.248 88.5091 205.1 91.4 205.1H138.6V258.5H80.5V216Z" fill="#3442D9"/>
<path d="M146.199 138.5H397.299C399.177 138.5 401.037 138.87 402.772 139.589C404.507 140.307 406.083 141.361 407.411 142.688C408.739 144.016 409.792 145.593 410.511 147.328C411.23 149.063 411.599 150.922 411.599 152.8V274.2C411.599 277.993 410.093 281.63 407.411 284.312C404.729 286.993 401.092 288.5 397.299 288.5H102.899L132.199 149.8C132.886 146.598 134.651 143.729 137.2 141.672C139.748 139.616 142.925 138.496 146.199 138.5Z" fill="#5865F2"/>
<path d="M275.799 138.5C272.537 138.5 269.374 139.624 266.843 141.682C264.311 143.74 262.566 146.606 261.899 149.8L238.899 258.5H235.399L258.299 149.8C258.986 146.598 260.751 143.729 263.3 141.672C265.848 139.616 269.025 138.496 272.299 138.5H275.799Z" fill="#3442D9"/>
<path d="M411.6 152.8C411.6 150.922 411.23 149.063 410.511 147.328C409.792 145.593 408.739 144.016 407.411 142.688C406.083 141.36 404.507 140.307 402.772 139.589C401.037 138.87 399.177 138.5 397.3 138.5H375.6C377.478 138.5 379.337 138.87 381.072 139.589C382.807 140.307 384.383 141.36 385.711 142.688C387.039 144.016 388.092 145.593 388.811 147.328C389.53 149.063 389.9 150.922 389.9 152.8V274.2C389.9 277.993 388.393 281.63 385.711 284.312C383.029 286.993 379.392 288.5 375.6 288.5H397.3C401.092 288.5 404.729 286.993 407.411 284.312C410.093 281.63 411.6 277.993 411.6 274.2V152.8Z" fill="#3442D9"/>
<path d="M373.1 205.1H400.8C403.674 205.126 406.421 206.286 408.443 208.328C410.466 210.369 411.6 213.126 411.6 216V274.2C411.6 277.993 410.094 281.63 407.412 284.312C404.73 286.993 401.093 288.5 397.3 288.5H362.2V216C362.2 213.109 363.349 210.337 365.393 208.293C367.437 206.248 370.209 205.1 373.1 205.1Z" fill="#5865F2"/>
<path d="M389.9 274.2C389.9 277.993 388.393 281.63 385.711 284.312C383.029 286.993 379.392 288.5 375.6 288.5H397.3C401.092 288.5 404.729 286.993 407.411 284.312C410.093 281.63 411.6 277.993 411.6 274.2V216C411.613 214.573 411.343 213.158 410.806 211.836C410.27 210.514 409.476 209.312 408.472 208.298C407.468 207.285 406.273 206.481 404.956 205.932C403.639 205.383 402.226 205.1 400.8 205.1C397.909 205.1 395.136 206.248 393.092 208.293C391.048 210.337 389.9 213.109 389.9 216V274.2Z" fill="#3442D9"/>
<path d="M67.7002 258.5H375.6V276.6H67.7002C67.0372 276.6 66.4013 276.337 65.9324 275.868C65.4636 275.399 65.2002 274.763 65.2002 274.1V261C65.2002 260.337 65.4636 259.701 65.9324 259.232C66.4013 258.763 67.0372 258.5 67.7002 258.5Z" fill="#808AFF"/>
<path d="M375.6 277.7H67.7002" stroke="black" stroke-width="2" stroke-linecap="round" stroke-linejoin="round"/>
<path d="M348.3 288.5L350.3 293.2H376V288.5H348.3Z" fill="black"/>
<path d="M67.0996 321.6H80.4996L94.4996 288.5H67.0996V321.6Z" fill="#B0E5FF"/>
<path d="M94.7996 288.5L92.8996 293.2H67.0996V288.5H94.7996Z" fill="black"/>
<path d="M108.8 235.4C107.459 235.37 106.153 234.972 105.024 234.249C103.895 233.526 102.987 232.505 102.4 231.3C98.4996 223.3 91.9996 215.5 80.8996 202.7C79.8366 201.577 79.1695 200.137 78.9996 198.6C78.8918 197.475 79.043 196.341 79.4417 195.283C79.8403 194.226 80.4759 193.274 81.2996 192.5L96.1996 178.8C96.9745 178.098 97.8894 177.569 98.8839 177.246C99.8783 176.924 100.93 176.816 101.969 176.929C103.008 177.042 104.012 177.375 104.913 177.904C105.815 178.433 106.594 179.148 107.2 180C108.199 181.509 108.628 183.325 108.408 185.121C108.188 186.918 107.334 188.577 106 189.8L97.1996 197.9C106.5 207 111.2 215.8 115.5 224.6C116.366 226.32 116.538 228.307 115.98 230.15C115.421 231.993 114.175 233.551 112.5 234.5C111.386 235.169 110.096 235.482 108.8 235.4Z" fill="#FFD736"/>
<path d="M113.3 167.7C113.957 168.95 114.838 170.069 115.9 171C117.708 172.58 119.114 174.568 120 176.8C120.257 177.378 120.337 178.018 120.23 178.641C120.123 179.264 119.834 179.841 119.4 180.3L108.7 191.3C108.3 191.696 107.786 191.957 107.23 192.047C106.674 192.137 106.104 192.05 105.6 191.8C102.4 190.1 97.6 185.4 95.5 179.2C95.2888 178.673 95.2426 178.095 95.3676 177.541C95.4926 176.988 95.7829 176.485 96.2 176.1L100.6 171.5C99.8 169.5 98.1 166.4 96.9 164.2C96.2763 163.088 96.0745 161.788 96.3316 160.539C96.5888 159.29 97.2876 158.176 98.3 157.4L99.8 156.4C100.45 156.013 101.193 155.808 101.95 155.808C102.707 155.808 103.45 156.013 104.1 156.4C107.8 158.7 110.3 162 113.3 167.7Z" fill="#29CC7A"/>
<path d="M99.7994 156.4L98.2994 157.4C97.3133 158.127 96.6354 159.198 96.3994 160.4C96.6994 158.8 99.6994 158.6 100.799 160.1C101.899 161.6 104.299 165 105.799 166C106.408 166.371 107.132 166.504 107.833 166.375C108.534 166.246 109.163 165.863 109.599 165.3C110.099 164.7 106.799 159.9 104.399 156.6L104.099 156.4C103.449 156.013 102.706 155.808 101.949 155.808C101.192 155.808 100.45 156.013 99.7994 156.4Z" fill="#57F287"/>
<path d="M98.9998 196.2L111.4 184.8C112.843 183.465 113.704 181.616 113.797 179.652C113.891 177.689 113.209 175.767 111.9 174.3C111.241 173.591 110.447 173.02 109.565 172.62C108.683 172.22 107.73 172 106.763 171.972C105.795 171.944 104.831 172.109 103.927 172.457C103.024 172.806 102.199 173.33 101.5 174L89.2998 185.2C90.6998 183.9 95.4998 185.8 97.7998 190.5C100.1 195.2 99.3998 195.8 98.9998 196.2Z" fill="white"/>
<path d="M94.0998 180.7L91.7998 182.9C93.2998 181.5 97.9998 183.4 100.4 188.1C102.8 192.8 102 193.5 101.6 193.9L103.9 191.7C104.3 191.3 105.1 190.6 102.7 186C100.3 181.4 95.5998 179.4 94.0998 180.7Z" fill="#5865F2"/>
<path d="M97 178C98.5 176.6 103.2 178.6 105.6 183.3C108 188 107.2 188.7 106.8 189.1C106.4 189.5 107.2 189.8 107.2 189.8L114.2 184L116 177.9L110.6 168.5L102.8 170.6L97.1 176.1L97 178Z" fill="#29CC7A"/>
<path d="M100.199 215.8C98.7992 242.6 120.399 266.1 148.499 266.1C154.926 266.178 161.296 264.894 167.19 262.332C173.085 259.771 178.369 255.989 182.696 251.237C187.024 246.485 190.295 240.87 192.295 234.762C194.294 228.654 194.978 222.191 194.299 215.8C191.899 191.1 170.399 172.5 146.199 172.5C121.999 172.5 101.399 191.1 100.199 215.8Z" fill="#FF78B9"/>
<path d="M191.399 237.3C192.928 233.249 193.903 229.011 194.299 224.7L188.499 212.3L180.499 207.9C181.899 215.7 176.299 229.7 169.399 236.3C176.199 236.9 184.999 237.2 191.399 237.3Z" fill="black"/>
<path d="M186.7 258.5H110.6V271.03H186.7V258.5Z" fill="#808AFF"/>
<path d="M122.3 287.9C120.861 287.904 119.449 287.515 118.215 286.774C116.982 286.034 115.974 284.971 115.3 283.7L98.9997 254.3C98.3221 253.067 97.9776 251.678 98.0001 250.271C98.0225 248.864 98.4112 247.487 99.1278 246.276C99.8445 245.064 100.864 244.061 102.087 243.364C103.309 242.667 104.692 242.3 106.1 242.3H116C120.4 242.3 127.9 244.9 130.6 250.4C133.3 255.9 131 258.5 126.6 258.5H119.8L129.4 275.9C130.442 277.771 130.701 279.979 130.12 282.04C129.539 284.102 128.166 285.849 126.3 286.9C125.073 287.569 123.696 287.913 122.3 287.9Z" fill="#FFD736"/>
<path d="M122.5 263.3C121.7 261.9 117.4 260.1 111.8 262.1C106.2 264.1 106.5 267.8 107.7 270L115.3 283.7C115.974 284.971 116.982 286.034 118.215 286.774C119.449 287.514 120.861 287.904 122.3 287.9C123.697 287.913 125.073 287.569 126.3 286.9C128.166 285.849 129.54 284.101 130.12 282.04C130.701 279.979 130.442 277.771 129.4 275.9L122.5 263.3Z" fill="white"/>
<path d="M124.699 267.2C123.799 265.8 119.599 264 113.999 266C108.399 268 108.599 271.7 109.799 273.9L111.599 277C110.399 274.8 110.299 271 115.699 269.1C121.099 267.2 125.599 268.9 126.399 270.4L124.699 267.2Z" fill="#5865F2"/>
<path d="M134.5 279.7C132.3 275.2 131.1 273.6 121.9 275C112.7 276.4 111.6 281.1 112.5 282.8L113.9 285.2C109.3 285.7 104.7 287.6 104.6 292.7C104.5 297.8 107.6 303.8 119.5 302.2C131.4 300.6 137 297.2 138.6 294.4C140.2 291.6 138.1 287.1 134.5 279.7Z" fill="#29CC7A"/>
<path d="M121.7 289C120.9 286 119.7 284.5 113.9 285.2C108.1 285.9 104.7 287.6 104.6 292.7C104.5 297.8 106.3 301.1 112.3 302.2C116.3 298 122.4 291.3 121.7 289Z" fill="#57F287"/>
<path d="M138.6 294.4C138.745 294.082 138.846 293.746 138.9 293.4C139.046 292.807 139.067 292.191 138.962 291.59C138.856 290.988 138.627 290.416 138.288 289.908C137.95 289.4 137.509 288.968 136.995 288.64C136.48 288.311 135.903 288.093 135.3 288C132.9 287.6 130.9 289.2 126.9 289.4C122.9 289.6 117.4 287.7 112 288.8C110.137 289.135 108.385 289.925 106.9 291.1C105.978 291.94 105.345 293.051 105.094 294.272C104.842 295.494 104.984 296.764 105.5 297.9C107.1 301.3 111.2 303.3 119.5 302.2C131.3 300.5 137 297.2 138.6 294.4Z" fill="black"/>
<path d="M178.1 212.5L157.7 209.2L157.5 233.3L171.9 236.9L178.1 212.5Z" fill="white"/>
<path d="M177.888 212.254C178.144 210.673 173.799 208.654 168.184 207.744C162.568 206.835 157.809 207.379 157.553 208.96C157.296 210.541 161.641 212.56 167.256 213.47C172.872 214.379 177.631 213.835 177.888 212.254Z" fill="#8CD9FF"/>
<path d="M167.9 210.3L169.5 197.1C169.517 196.878 169.477 196.655 169.384 196.452C169.29 196.25 169.146 196.075 168.965 195.945C168.784 195.814 168.573 195.732 168.351 195.707C168.13 195.682 167.906 195.714 167.7 195.8L160 199.8" stroke="white" stroke-width="2" stroke-linecap="round" stroke-linejoin="round"/>
<path d="M137.9 208.3C139.3 210.3 137.8 213 134.4 213C131 213 127.2 210.3 125.7 208.3C124.2 206.3 125.8 204.7 129.1 204.7C132.4 204.7 136.4 206.3 137.9 208.3Z" fill="black"/>
<path d="M119.399 180.3C119.834 179.841 120.123 179.264 120.229 178.641C120.336 178.018 120.256 177.378 119.999 176.8C119.113 174.568 117.708 172.58 115.899 171C114.837 170.069 113.956 168.95 113.299 167.7C110.299 162 107.799 158.7 104.099 156.4C103.449 156.013 102.706 155.808 101.949 155.808C101.192 155.808 100.45 156.013 99.7994 156.4L98.2994 157.4C97.951 157.647 97.6467 157.952 97.3994 158.3C98.8994 156.5 101.799 156.8 105.099 160.5C109.799 166 109.599 167.8 111.899 170.5C114.199 173.2 117.399 176.2 118.799 180.8L119.399 180.3Z" fill="black"/>
<path d="M119.1 192.7C120.6 187.3 125.1 182.6 129.3 182.3H129.9C131.8 182.3 133.2 183.3 135.1 185.4C135.495 185.902 136.068 186.234 136.7 186.327C137.333 186.42 137.977 186.267 138.5 185.9C141.273 183.721 144.674 182.493 148.2 182.4C153.1 182.4 156.9 186.9 156.7 192.4C156.5 197.9 152.6 202.5 147.7 202.5H146.7C143.8 202.1 140.3 200.2 136.9 197.2C136.521 196.862 136.04 196.66 135.534 196.623C135.027 196.587 134.523 196.72 134.1 197C129.6 200.7 126 202.2 124.2 202.2C120 202.3 117.7 198.1 119.1 192.7Z" fill="white"/>
<path d="M156.542 193.258C157.116 187.71 153.706 182.812 148.927 182.318C144.147 181.824 139.808 185.921 139.234 191.47C138.661 197.018 142.071 201.917 146.85 202.411C151.63 202.905 155.969 198.807 156.542 193.258Z" fill="white"/>
<path d="M132.739 195.777C135.721 190.675 135.47 184.981 132.18 183.058C128.89 181.135 123.806 183.713 120.824 188.815C117.843 193.917 118.093 199.612 121.383 201.535C124.673 203.457 129.758 200.88 132.739 195.777Z" fill="white"/>
<path d="M123.899 184.9C125.111 184.157 126.482 183.712 127.899 183.6H128.499C130.699 183.6 132.299 184.7 134.499 187C134.985 187.497 135.624 187.817 136.313 187.908C137.002 187.998 137.702 187.855 138.299 187.5C141.445 185.11 145.251 183.748 149.199 183.6C150.993 183.593 152.743 184.153 154.199 185.2C153.475 184.311 152.559 183.597 151.52 183.112C150.481 182.628 149.346 182.384 148.199 182.4C144.674 182.493 141.272 183.721 138.499 185.9C137.976 186.267 137.332 186.42 136.7 186.327C136.068 186.234 135.495 185.902 135.099 185.4C133.199 183.3 131.799 182.3 129.899 182.3H129.299C127.278 182.601 125.395 183.507 123.899 184.9Z" fill="#C9EDFF"/>
<path d="M147.909 191.378C148.37 189.558 147.615 187.797 146.223 187.444C144.831 187.092 143.329 188.282 142.868 190.103C142.408 191.923 143.163 193.684 144.555 194.037C145.947 194.389 147.449 193.199 147.909 191.378Z" fill="black"/>
<path d="M130.24 191.238C130.773 189.437 130.175 187.673 128.904 187.296C127.633 186.92 126.171 188.074 125.638 189.874C125.104 191.675 125.702 193.44 126.973 193.816C128.244 194.192 129.707 193.038 130.24 191.238Z" fill="black"/>
<path d="M132.134 191.196C132.292 184.239 128.257 178.505 123.122 178.389C117.987 178.272 113.697 183.817 113.539 190.774C113.381 197.731 117.416 203.466 122.551 203.582C127.685 203.699 131.976 198.153 132.134 191.196Z" stroke="#5865F2" stroke-width="2" stroke-miterlimit="10"/>
<path d="M157.089 191.419C157.25 184.351 152.993 178.522 147.582 178.4C142.171 178.277 137.655 183.906 137.494 190.974C137.334 198.041 141.591 203.87 147.002 203.993C152.413 204.116 156.929 198.486 157.089 191.419Z" stroke="#5865F2" stroke-width="2" stroke-miterlimit="10"/>
<path d="M137.5 187.7H131.8" stroke="#5865F2" stroke-width="2" stroke-miterlimit="10"/>
<path d="M113.9 305.4C113.073 304.995 112.375 304.37 111.881 303.594C111.387 302.818 111.116 301.92 111.1 301C111.086 300.332 111.119 299.664 111.2 299C111.34 297.502 112.013 296.104 113.095 295.058C114.177 294.013 115.598 293.389 117.1 293.3C120.2 293.1 124.3 292.7 126.9 292.3L128.7 284.9C128.881 284.256 129.224 283.67 129.697 283.197C130.17 282.724 130.756 282.381 131.4 282.2C138.9 280.5 146.7 282.4 150.4 284.5C150.973 284.84 151.425 285.351 151.694 285.96C151.963 286.57 152.035 287.248 151.9 287.9L147.6 305.7C147.425 306.425 147.036 307.08 146.483 307.579C145.93 308.079 145.238 308.4 144.5 308.5C141.67 308.975 138.772 308.838 136 308.1C134.383 307.599 132.689 307.396 131 307.5C123.4 308.1 118.5 307.7 113.9 305.4Z" fill="#29CC7A"/>
<path d="M111.1 301C111.086 300.332 111.119 299.664 111.2 299C111.316 297.527 111.954 296.144 113 295.1C111.6 296.4 113.3 299.6 115.6 299.8C117.9 300 122.6 300.2 124.6 301.1C125.366 301.451 125.968 302.081 126.285 302.862C126.601 303.643 126.606 304.515 126.3 305.3C126 306.2 119.1 305.9 114.3 305.6L113.9 305.4C113.073 304.995 112.375 304.37 111.881 303.594C111.387 302.818 111.116 301.92 111.1 301Z" fill="#57F287"/>
<path d="M147.6 305.7C147.425 306.425 147.036 307.08 146.483 307.579C145.929 308.079 145.238 308.4 144.5 308.5C141.67 308.975 138.772 308.839 136 308.1C134.383 307.6 132.689 307.396 131 307.5C123.4 308.1 118.5 307.7 113.9 305.4C113.066 305.005 112.361 304.382 111.866 303.604C111.37 302.825 111.105 301.923 111.1 301V299C111.186 298.489 111.32 297.987 111.5 297.5C110.7 300.1 112.8 302.9 118.7 303.8C127.2 305.1 128.9 303.7 133.1 304.4C137.3 305.1 142.3 306.3 147.8 304.8L147.6 305.7Z" fill="black"/>
<path d="M139.2 299.8H137.6C135.502 299.343 133.667 298.082 132.489 296.287C131.311 294.492 130.884 292.306 131.3 290.2L140.1 248.8C140.471 246.983 141.461 245.351 142.902 244.184C144.343 243.016 146.145 242.386 148 242.4H163.8C164.932 242.274 166.079 242.388 167.164 242.735C168.25 243.081 169.25 243.653 170.099 244.413C170.948 245.173 171.628 246.103 172.093 247.144C172.558 248.184 172.798 249.311 172.798 250.45C172.798 251.59 172.558 252.716 172.093 253.757C171.628 254.797 170.948 255.727 170.099 256.487C169.25 257.247 168.25 257.819 167.164 258.166C166.079 258.513 164.932 258.627 163.8 258.5H154.6L147.2 293.5C146.771 295.298 145.748 296.899 144.296 298.042C142.844 299.186 141.048 299.805 139.2 299.8Z" fill="#FFD736"/>
<path d="M154.6 258.4L156.6 249.5H159.7V258.4H154.6Z" fill="black"/>
<path d="M193.799 206.9C196.099 212.6 201.499 230 201.699 234.4C201.899 238.8 198.499 243.3 191.999 242.5C188.399 242 162.499 237.5 149.699 235.3C147.749 234.961 145.99 233.919 144.756 232.371C143.521 230.823 142.897 228.877 142.999 226.9C143.068 225.756 143.376 224.639 143.904 223.621C144.432 222.603 145.167 221.707 146.062 220.991C146.957 220.275 147.992 219.754 149.101 219.463C150.21 219.172 151.368 219.116 152.499 219.3L184.299 224.6C183.395 218.957 182.126 213.379 180.499 207.9C179.299 203.9 180.899 199.5 186.499 199.9C192.099 200.3 192.499 203.6 193.799 206.9Z" fill="#FFD736"/>
<path d="M149.699 234.4L148.099 234.1L135.799 229.4L128.399 222L132.499 217.7C135.999 214.1 137.899 214.9 140.999 216.4C144.127 218.007 147.457 219.184 150.899 219.9C151.583 220.028 152.224 220.323 152.765 220.759C153.306 221.196 153.73 221.759 153.999 222.4C154.58 224.097 154.808 225.894 154.67 227.682C154.533 229.471 154.032 231.212 153.199 232.8C152.846 233.389 152.322 233.857 151.698 234.143C151.073 234.429 150.376 234.518 149.699 234.4Z" fill="#D11583"/>
<path d="M136 224.2L137.2 220.3" stroke="black" stroke-width="2" stroke-miterlimit="10" stroke-linecap="round"/>
<path d="M105.499 218.6H128.599C129.86 218.595 131.107 218.87 132.249 219.406C133.39 219.943 134.398 220.726 135.199 221.7L142.299 230.3C143.081 231.222 143.511 232.391 143.511 233.6C143.511 234.809 143.081 235.979 142.299 236.9C141.453 237.959 140.227 238.645 138.882 238.814C137.537 238.982 136.18 238.618 135.099 237.8L129.199 233.4H111.999L111.099 235.8C110.737 236.695 110.115 237.459 109.312 237.994C108.509 238.529 107.564 238.81 106.599 238.8C105.961 238.813 105.326 238.699 104.732 238.464C104.138 238.229 103.597 237.877 103.14 237.43C102.684 236.983 102.321 236.449 102.074 235.86C101.826 235.271 101.699 234.639 101.699 234V222.4C101.699 221.901 101.798 221.407 101.988 220.946C102.179 220.485 102.459 220.066 102.812 219.713C103.165 219.36 103.584 219.08 104.045 218.889C104.506 218.698 105 218.6 105.499 218.6Z" fill="white"/>
<path d="M137.799 221.7C137.799 221.7 136.399 226.8 135.799 228.2C134.451 228.743 133.04 229.112 131.599 229.3C130.995 229.39 130.42 229.617 129.917 229.964C129.415 230.31 128.998 230.768 128.699 231.3C128.294 232.062 128.153 232.936 128.297 233.787C128.442 234.637 128.865 235.416 129.499 236L134.799 240.8C136.299 242.2 138.999 242.1 142.199 240.4C145.399 238.7 146.399 238.8 148.699 233.1L150.799 226.9C151.03 226.233 151.093 225.52 150.983 224.823C150.873 224.126 150.593 223.467 150.169 222.904C149.744 222.341 149.187 221.891 148.547 221.594C147.907 221.296 147.204 221.161 146.499 221.2L137.799 221.7Z" fill="#D11583"/>
<path d="M110.1 231.8C108.2 229.9 107.7 229.7 106.5 229.7H101.7V222.4C101.7 221.901 101.798 221.407 101.989 220.946C102.18 220.485 102.46 220.066 102.813 219.713C103.166 219.36 103.585 219.08 104.046 218.889C104.507 218.698 105.001 218.6 105.5 218.6H111.9C111.23 217.592 110.661 216.52 110.2 215.4C109.3 213.4 108.7 213.1 106.9 213C106.308 213.008 105.727 213.157 105.205 213.435C104.683 213.714 104.236 214.113 103.9 214.6C103.16 215.716 102.166 216.641 101 217.3C98.5 218.7 98 219.9 97.6 223.2C97.1 228.1 96.9 228.9 96.7 231.8C96.5 234.7 97.3 235.9 100.1 237.9C102.9 239.9 105 241 106.9 241C108.8 241 110.2 239.7 112 237.4C113.8 235.1 112 233.8 110.1 231.8Z" fill="#D11583"/>
<path d="M118.2 224.4H113.8C112.936 224.397 112.085 224.186 111.32 223.786C110.554 223.386 109.896 222.808 109.4 222.1C109.2 221.9 109.4 221.5 109.7 221.5H122C122.112 221.509 122.219 221.548 122.309 221.615C122.4 221.681 122.47 221.771 122.511 221.876C122.553 221.98 122.565 222.093 122.545 222.204C122.525 222.314 122.475 222.417 122.4 222.5L121.8 223C120.83 223.921 119.537 224.424 118.2 224.4Z" fill="#57F287"/>
<path d="M179.999 269.7C180.712 269.724 181.403 269.954 181.989 270.362C182.574 270.771 183.029 271.339 183.299 272L186.399 280.6C186.813 281.574 186.92 282.651 186.706 283.688C186.491 284.724 185.966 285.67 185.199 286.4L184.899 286.6C182.89 288.228 181.482 290.481 180.899 293C179.699 298.2 177.599 302.1 173.999 304.1C170.399 306.1 164.499 308 161.099 303.4C157.699 298.8 160.599 297 162.699 287.7C163.154 285.945 163.049 284.092 162.399 282.4L161.599 280.1C161.359 279.496 161.298 278.836 161.422 278.198C161.546 277.56 161.851 276.97 162.299 276.5C166.099 272.2 172.699 269.5 179.999 269.7Z" fill="#29CC7A"/>
<path d="M160 298C159.754 298.924 159.726 299.892 159.917 300.829C160.108 301.766 160.512 302.646 161.1 303.4C164.4 307.8 168.8 306.9 173.5 304.4C176.6 300.5 180 295.4 179.2 292.9C177.7 288.6 175.2 292.3 173.8 294.4C172.4 296.5 168.9 298.5 166 299.6C163.1 300.7 159.5 300.6 160 298Z" fill="#57F287"/>
<path d="M183.699 285.4C182.467 286.008 181.393 286.894 180.56 287.987C179.727 289.08 179.159 290.351 178.899 291.7C178.312 294.073 177.21 296.289 175.672 298.189C174.134 300.09 172.198 301.63 169.999 302.7C165.599 305 162.199 304.8 160.899 303.1C164.299 308.3 169.599 306.5 173.999 304.1C178.399 301.7 179.699 298.2 180.899 293C181.482 290.481 182.89 288.228 184.899 286.6L185.199 286.4C185.966 285.67 186.491 284.724 186.706 283.688C186.92 282.651 186.813 281.574 186.399 280.6C186.799 282.1 185.799 284.4 183.699 285.4Z" fill="black"/>
<path d="M173.2 285.2C171.517 285.199 169.876 284.68 168.499 283.714C167.121 282.748 166.074 281.381 165.5 279.8L156.3 253C155.906 251.764 155.801 250.455 155.992 249.173C156.182 247.89 156.664 246.668 157.4 245.6C158.16 244.567 159.155 243.729 160.302 243.155C161.45 242.581 162.717 242.288 164 242.3H173C175.148 242.3 177.208 243.154 178.727 244.673C180.246 246.192 181.1 248.252 181.1 250.4C181.1 254.1 179.1 255.1 175.1 257.9L180.8 274.5C181.501 276.529 181.369 278.754 180.431 280.685C179.494 282.616 177.828 284.096 175.8 284.8C174.96 285.073 174.082 285.208 173.2 285.2Z" fill="#FFD736"/>
<path d="M176.8 256.7L174.7 250.5C174.655 250.374 174.586 250.259 174.496 250.16C174.406 250.062 174.297 249.982 174.176 249.926C174.055 249.87 173.924 249.839 173.791 249.835C173.657 249.83 173.524 249.852 173.4 249.9C173.277 249.933 173.164 249.992 173.066 250.072C172.968 250.153 172.888 250.253 172.831 250.366C172.775 250.479 172.743 250.603 172.737 250.73C172.732 250.856 172.753 250.982 172.8 251.1L175.1 257.9L176.8 256.7Z" fill="black"/>
<path d="M180.799 274.5L174.499 256.2C174.799 256.9 174.199 260.2 168.799 262.3C163.399 264.4 159.999 263.7 159.399 262L165.499 279.8C165.822 280.836 166.35 281.797 167.051 282.625C167.752 283.453 168.613 284.132 169.581 284.621C170.55 285.111 171.607 285.4 172.69 285.473C173.772 285.546 174.859 285.4 175.884 285.045C176.91 284.69 177.853 284.132 178.659 283.405C179.465 282.678 180.116 281.797 180.574 280.813C181.033 279.83 181.289 278.764 181.328 277.68C181.366 276.595 181.187 275.514 180.799 274.5Z" fill="white"/>
<path d="M177.7 265.3L176.3 261.2C176.5 261.9 175.9 265.1 170.5 267.3C165.1 269.5 161.7 268.6 161.1 267L162.5 271C163.1 272.7 166.6 273.5 171.9 271.3C177.2 269.1 177.9 266 177.7 265.3Z" fill="#5865F2"/>
<path d="M144.7 269.1C139.1 268.2 136.5 265.8 136.8 264L131.3 290.1C130.884 292.206 131.311 294.392 132.489 296.187C133.667 297.982 135.502 299.243 137.6 299.7H139.2C141.062 299.7 142.868 299.066 144.322 297.903C145.776 296.74 146.791 295.117 147.2 293.3L152.8 266.8C152.6 267.6 150.4 270 144.7 269.1Z" fill="white"/>
<path d="M143.6 274.4C137.9 273.4 135.4 271 135.7 269.3L134.9 273.1C134.6 274.8 137.1 277.3 142.8 278.2C148.5 279.1 150.7 276.6 150.9 275.9L151.7 272.1C151.5 272.8 149.3 275.3 143.6 274.4Z" fill="#5865F2"/>
<path d="M132.8 283.2C132.6 284.1 132.3 286.5 136.7 287.8C141.1 289.1 148.1 288.7 148.5 287.2L148.9 285.1H150L147.4 297.8L139.2 302.4L130.7 298L128.5 292.1L130.7 284.1L132.8 283.2Z" fill="#29CC7A"/>
<path d="M180 272.2C180.3 272.8 179.4 275.6 174.1 277.7C168.8 279.8 165.6 279.9 165 278.2L164.7 277.4L163.5 277.9L166.7 285.9L176.1 288.2L183.2 281.8L183.9 277.8L181.6 271.4L179.6 271.1L180 272.2Z" fill="#29CC7A"/>
<path d="M143.699 229C143.448 228.938 143.182 228.977 142.958 229.108C142.734 229.238 142.57 229.451 142.499 229.7C141.799 232.4 141.399 233.8 139.499 234.7C136.844 236.154 133.916 237.04 130.899 237.3C131.241 237.63 131.609 237.931 131.999 238.2C132.254 238.493 132.587 238.705 132.96 238.812C133.333 238.919 133.729 238.914 134.099 238.8C136.302 238.351 138.425 237.576 140.399 236.5C143.199 235.1 143.799 232.7 144.399 230.2C144.445 230.075 144.463 229.942 144.452 229.81C144.44 229.678 144.399 229.55 144.333 229.435C144.266 229.32 144.174 229.222 144.065 229.147C143.955 229.071 143.83 229.021 143.699 229Z" fill="black"/>
<path d="M192.499 227L184.499 222.4H183.899C184.081 223.158 184.215 223.926 184.299 224.7H184.199L191.599 228.9H191.999C192.179 228.897 192.355 228.849 192.512 228.762C192.668 228.675 192.802 228.551 192.899 228.4C192.969 228.283 193.014 228.153 193.032 228.018C193.049 227.882 193.039 227.745 193.002 227.614C192.964 227.483 192.9 227.361 192.814 227.255C192.728 227.15 192.621 227.063 192.499 227Z" fill="black"/>
<path d="M110.799 234.4C111.007 234.079 111.101 233.697 111.065 233.315C111.028 232.934 110.864 232.577 110.599 232.3L110.099 231.8L109.599 231.4C109.699 233.6 108.599 234.2 103.699 236.6L100.399 238.2L100.999 238.6C101.399 238.851 101.854 239 102.325 239.035C102.795 239.069 103.267 238.989 103.699 238.8L104.599 238.4C107.599 236.9 109.699 235.9 110.799 234.4Z" fill="black"/>
<path d="M127.4 221.4H127.3C126.361 221.4 125.6 222.161 125.6 223.1V225.21C125.6 226.149 126.361 226.91 127.3 226.91H127.4C128.338 226.91 129.1 226.149 129.1 225.21V223.1C129.1 222.161 128.338 221.4 127.4 221.4Z" fill="#A6ADFF"/>
<path d="M105.6 221.4H105.5C104.561 221.4 103.8 222.161 103.8 223.1V225.21C103.8 226.149 104.561 226.91 105.5 226.91H105.6C106.539 226.91 107.3 226.149 107.3 225.21V223.1C107.3 222.161 106.539 221.4 105.6 221.4Z" fill="#A6ADFF"/>
<path d="M119.9 258.5H122.1L118.8 252.5C118.659 252.297 118.455 252.148 118.219 252.075C117.983 252.003 117.73 252.011 117.5 252.1C117.379 252.163 117.272 252.249 117.185 252.355C117.099 252.461 117.035 252.583 116.997 252.714C116.96 252.845 116.95 252.982 116.967 253.118C116.985 253.253 117.03 253.383 117.1 253.5L119.9 258.5Z" fill="black"/>
<path d="M128.699 211C130.38 212.176 132.352 212.868 134.399 213C137.399 213 138.899 211 138.299 209.2C136.666 208.763 134.956 208.698 133.295 209.009C131.633 209.321 130.063 210.001 128.699 211Z" fill="#E63795"/>
<path d="M126.3 205.3C127.2 206.8 131.2 206.7 136.3 206.9C134.162 205.489 131.662 204.725 129.1 204.7C128.13 204.649 127.164 204.856 126.3 205.3Z" fill="white"/>
<path d="M97.1995 197.9L98.6995 196.5L95.9995 193.4C95.8139 193.201 95.5568 193.084 95.2849 193.075C95.013 193.065 94.7485 193.164 94.5496 193.35C94.3506 193.536 94.2336 193.793 94.2242 194.065C94.2149 194.337 94.3139 194.601 94.4995 194.8L97.1995 197.9Z" fill="black"/>
<path d="M227.3 203.1C230.448 203.1 233 200.548 233 197.4C233 194.252 230.448 191.7 227.3 191.7C224.152 191.7 221.6 194.252 221.6 197.4C221.6 200.548 224.152 203.1 227.3 203.1Z" fill="#FFD736"/>
<path d="M241.699 202.9C248.327 202.9 253.699 197.527 253.699 190.9C253.699 184.272 248.327 178.9 241.699 178.9C235.072 178.9 229.699 184.272 229.699 190.9C229.699 197.527 235.072 202.9 241.699 202.9Z" fill="#FFD736"/>
<path d="M296.9 166.1C284 170.7 281.6 170.4 270.9 214.1C255.6 209.8 247.5 210.9 246.2 224.2C244.9 237.5 261.3 237.8 275.7 238C290.1 238.2 294.9 229 304.8 202.1C314.7 175.2 296.9 166.1 296.9 166.1Z" fill="#459FF7"/>
<path d="M269.3 198C275.927 198 281.3 192.627 281.3 186C281.3 179.372 275.927 174 269.3 174C262.672 174 257.3 179.372 257.3 186C257.3 192.627 262.672 198 269.3 198Z" fill="#FFD736"/>
<path d="M255.399 190.8C262.027 190.8 267.399 185.427 267.399 178.8C267.399 172.172 262.027 166.8 255.399 166.8C248.772 166.8 243.399 172.172 243.399 178.8C243.399 185.427 248.772 190.8 255.399 190.8Z" fill="#FFD736"/>
<path d="M242.799 230.2C236.999 229.7 235.799 227.4 235.499 225C235.199 222.6 234.599 222.1 232.599 220.2C230.599 218.3 229.199 215.1 231.999 213.7C234.155 212.796 236.401 212.126 238.699 211.7L242.799 230.2Z" fill="#FF8CC4"/>
<path d="M285.599 185.7C286.699 190.2 274.499 197.1 258.399 201C242.299 204.9 228.299 204.4 227.199 199.8C226.099 195.2 237.999 187.2 254.099 183.3C270.199 179.4 284.499 181.1 285.599 185.7Z" fill="white"/>
<path d="M285.6 186L227.3 200.1L243.9 236.3L287.5 225.7L285.6 186Z" fill="white"/>
<path d="M279.1 227.7L271.7 229.5L266 181.3C269.463 181.027 272.943 181.061 276.4 181.4L279.1 227.7Z" fill="#A6ADFF"/>
<path d="M260.299 232.3L254.099 233.8L236.199 190.1C238.885 188.566 241.695 187.262 244.599 186.2L260.299 232.3Z" fill="#A6ADFF"/>
<path d="M266.611 235.709C278.635 232.8 287.867 228.31 287.23 225.679C286.594 223.049 276.33 223.275 264.306 226.184C252.282 229.093 243.05 233.583 243.686 236.214C244.323 238.844 254.586 238.618 266.611 235.709Z" fill="black"/>
<path d="M244 216.9C241.9 211.8 240.5 210.7 239.3 210.3C238.1 209.9 235.9 209.9 231.1 214.3L240.1 228.1C239.8 227.4 241 225.3 243.1 223.9C245.2 222.5 246.2 222.1 244 216.9Z" fill="#FF8CC4"/>
<path d="M233 215.5C229.7 214.6 229.6 213 229.6 211.7C229.6 210.4 230.5 206.8 231.6 205.6C232.7 204.4 233.9 205.8 234.3 207.7C234.7 209.6 234.7 210.5 233 215.5Z" fill="#FF8CC4"/>
<path d="M341.5 93.0997C342.991 93.0997 344.2 91.8909 344.2 90.3997C344.2 88.9085 342.991 87.6997 341.5 87.6997C340.009 87.6997 338.8 88.9085 338.8 90.3997C338.8 91.8909 340.009 93.0997 341.5 93.0997Z" fill="#FFD736"/>
<path d="M307.3 94.5998C310.363 90.8041 314.471 87.9875 319.115 86.4971C323.76 85.0067 328.739 84.9077 333.439 86.2122C338.139 87.5167 342.355 90.1677 345.568 93.8386C348.78 97.5096 350.848 102.04 351.517 106.872C352.186 111.704 351.427 116.626 349.334 121.031C347.24 125.437 343.904 129.134 339.735 131.667C335.566 134.2 330.747 135.458 325.873 135.286C320.998 135.114 316.28 133.52 312.3 130.7C309.525 128.716 307.184 126.188 305.419 123.27C303.655 120.351 302.503 117.104 302.035 113.725C301.567 110.347 301.793 106.909 302.698 103.62C303.603 100.332 305.169 97.2628 307.3 94.5998Z" fill="#1D2CC2"/>
<path d="M294.499 101C282.499 85.8998 280.999 76.9998 293.399 74.0998C301.262 72.3084 309.422 72.2743 317.299 73.9998C320.42 74.7405 323.354 76.1176 325.918 78.0449C328.482 79.9721 330.62 82.4079 332.199 85.1998C341.699 101.5 342.799 107 342.799 107L294.499 101Z" fill="#FF78B9"/>
<path d="M304.2 92.5997C297.3 92.5997 297.5 94.9997 297.8 97.6997C298.1 100.4 304.2 92.5997 304.2 92.5997Z" fill="black"/>
<path d="M294.499 101L342.799 107C342.799 107 341.699 101.4 332.199 85.1998C330.63 82.4003 328.495 79.9585 325.929 78.0302C323.364 76.1018 320.425 74.7292 317.299 73.9998C309.422 72.2743 301.262 72.3084 293.399 74.0998C280.999 76.9998 282.499 85.8998 294.499 101ZM294.299 76.4998C301.25 75.0076 308.435 74.9736 315.399 76.3998C321.059 77.6524 326.009 81.0598 329.199 85.8998C338.699 100.4 340.199 105.5 340.199 105.5L296.199 99.9998C285.899 85.2998 283.199 78.9998 294.299 76.4998Z" fill="#EB459F"/>
<path d="M353.899 144.8C349.999 136.5 349.799 128.7 349.899 121.7C350.021 117.512 349.296 113.342 347.767 109.441C346.237 105.54 343.935 101.989 340.999 98.9997C333.499 91.6997 325.199 90.4997 317.499 90.0997C303.899 89.1997 275.999 100.9 285.499 147.5C291.399 176.3 299.999 209.9 299.999 209.9C299.999 209.9 271.299 257.7 328.099 257.7C370.699 257.7 381.299 257.3 386.699 242.4C390.435 231.791 390.471 220.231 386.799 209.6C372.999 169.1 363.299 164.7 353.899 144.8Z" fill="#459FF7"/>
<path d="M292.799 180.4C295.299 190.9 299.999 209.9 299.999 209.9C293.599 218.3 290.999 226.4 292.899 236.3" stroke="black" stroke-width="2" stroke-linecap="round" stroke-linejoin="round"/>
<path d="M317.5 90.0998C324.4 90.4998 331.9 91.4998 338.7 97.0998C305.3 104.2 305.1 112.1 292 102C299.5 92.5998 310.5 89.5998 317.5 90.0998Z" fill="#2A88E6"/>
<path d="M319.2 100.2C318.829 98.9684 318.66 97.6851 318.7 96.3998" stroke="black" stroke-width="2" stroke-linecap="round" stroke-linejoin="round"/>
<path d="M318.1 100.5C317.384 99.4618 316.843 98.3131 316.5 97.0997" stroke="black" stroke-width="2" stroke-linecap="round" stroke-linejoin="round"/>
<path d="M318 100.5C316.791 100.193 315.642 99.6856 314.6 98.9998" stroke="black" stroke-width="2" stroke-linecap="round" stroke-linejoin="round"/>
<path d="M300.7 101.8C300.398 100.796 300.296 99.7427 300.4 98.6997" stroke="black" stroke-width="2" stroke-linecap="round" stroke-linejoin="round"/>
<path d="M299.599 102C299.017 101.156 298.609 100.204 298.399 99.1997" stroke="black" stroke-width="2" stroke-linecap="round" stroke-linejoin="round"/>
<path d="M299.5 102C298.519 101.71 297.602 101.235 296.8 100.6" stroke="black" stroke-width="2" stroke-linecap="round" stroke-linejoin="round"/>
<path d="M321.753 108.815C323.028 104.183 321.861 99.821 319.146 99.073C316.43 98.325 313.195 101.474 311.919 106.106C310.643 110.739 311.81 115.1 314.525 115.848C317.241 116.596 320.477 113.447 321.753 108.815Z" fill="white"/>
<path d="M317.744 107.059C318.316 104.983 317.787 103.026 316.562 102.688C315.338 102.351 313.881 103.761 313.309 105.838C312.737 107.914 313.266 109.871 314.491 110.208C315.716 110.546 317.172 109.136 317.744 107.059Z" fill="black"/>
<path d="M301.572 109.288C303.3 104.923 303.036 100.725 300.982 99.912C298.928 99.0988 295.862 101.978 294.134 106.343C292.406 110.707 292.67 114.905 294.724 115.718C296.778 116.531 299.844 113.652 301.572 109.288Z" fill="white"/>
<path d="M305.4 126.6C304.938 127.028 304.33 127.267 303.7 127.267C303.069 127.267 302.462 127.028 302 126.6C295.9 121.1 292.8 121.1 292.8 128.2C292.8 135.3 299.6 154.5 307.1 154.5C314.6 154.5 319.5 141.8 322 132.1C324.5 122.4 319.8 118.8 315 120.4C311.7 121.5 307.7 124.7 305.4 126.6Z" fill="black"/>
<path d="M311.4 140.3C309.1 138.6 305.6 139.1 303.5 140.8C301.4 142.5 298.7 145.8 301.5 148.9C304.3 152 310.1 150.3 313 147.5C315.9 144.7 318.3 142.6 317.8 140.6C317.3 138.6 315.4 138.2 311.4 140.3Z" fill="#FF78B9"/>
<path d="M299.891 107.561C300.606 105.763 300.478 104.024 299.605 103.677C298.731 103.329 297.444 104.505 296.729 106.303C296.013 108.1 296.141 109.839 297.015 110.187C297.888 110.534 299.175 109.358 299.891 107.561Z" fill="black"/>
<path d="M300 92.5997C300 87.0997 309.1 88.4997 313.8 88.7997C320.6 89.1997 330.9 89.6997 338.6 96.8997V97.0997C333.1 91.8997 312.4 92.5997 300 92.5997Z" fill="#FF78B9"/>
<path d="M338.7 97.0998C337.569 96.1782 336.282 95.467 334.9 94.9998L334 93.4998C334 92.0998 334.7 91.7998 335.3 92.2998C335.9 92.7998 337.4 94.8998 338.6 96.8998L338.7 97.0998Z" fill="#EB459F"/>
<path d="M368.299 184L340.899 144C350.899 127.3 361.199 121.2 375.299 136.9C389.399 152.6 398.899 172.9 404.099 182.4C409.299 191.9 408.499 198.1 400.799 205.1H368.599C367.229 205.088 365.892 204.675 364.754 203.91C363.616 203.146 362.728 202.064 362.199 200.8C359.299 193.9 362.499 187.4 368.299 184Z" fill="#459FF7"/>
<path d="M368.6 205.1C367.229 205.088 365.892 204.675 364.755 203.91C363.617 203.146 362.729 202.064 362.2 200.8C359.3 193.9 362.5 187.4 368.3 184L353.5 162.4" stroke="black" stroke-width="2" stroke-linecap="round" stroke-linejoin="round"/>
<path d="M311.599 139.1C308.534 140.549 305.885 142.751 303.899 145.5" stroke="black" stroke-width="2" stroke-linecap="round" stroke-linejoin="round"/>
<path d="M306.5 228C281.6 226.4 265 225.1 257.2 235.5C249.4 245.9 251.5 264.1 253.3 290.8C254.6 310.5 259.7 307.9 268.2 307.9C279.5 307.9 284.3 305.9 284.3 295.7C284.3 285.5 283.6 258.5 283.6 258.5H320.9C329.5 242.1 333.8 229.8 306.5 228Z" fill="#3442D9"/>
<path d="M254.1 297.7C256.1 309.8 260.9 307.9 268.2 307.9C279.5 307.9 284.3 305.9 284.3 295.7C277.6 298.6 266.2 295.6 261.6 294.8C257 294 253.8 295.9 254.1 297.7Z" fill="#1D2CC2"/>
<path d="M269.6 306.8C274.3 305.5 274.9 302.6 274.3 290.9C273.7 279.2 274 262.1 274.5 253C275 243.9 278.4 245 289.5 245.6C300.6 246.2 322.7 247.7 322.7 247.7" stroke="#116BD9" stroke-width="2" stroke-linecap="round" stroke-linejoin="round"/>
<path d="M340.099 308C354.799 308 357.599 302.8 357.999 298.2C358.399 293.6 353.699 282.4 344.399 258.5H377.899C382.54 252.371 385.968 245.414 387.999 238C361.399 228.1 341.099 223.4 319.999 223.8C298.899 224.2 299.799 240.4 306.699 258.5C313.599 276.6 316.199 283.9 320.499 295.9C324.799 307.9 331.499 308 340.099 308Z" fill="#3442D9"/>
<path d="M340.1 308C354.8 308 357.6 302.8 358 298.2C358.037 296.651 357.869 295.104 357.5 293.6C349.9 295.9 337.4 292.7 329.8 291.6C322.2 290.5 319.7 293.7 320.5 295.9C324.8 307.9 331.5 308 340.1 308Z" fill="#1D2CC2"/>
<path d="M343.1 306.8C346.5 301.1 347.2 297.4 343.1 285.1C339 272.8 332.6 254.5 330.5 249.3C328.4 244.1 330.8 239.5 336.6 240.7C342.4 241.9 374.1 248.6 374.1 248.6" stroke="#116BD9" stroke-width="2" stroke-linecap="round" stroke-linejoin="round"/>
<path d="M325.399 305.4L322.499 304.5C318.328 303.35 313.948 303.179 309.699 304C305.999 304.9 305.499 307.2 305.899 310.1C305.401 310.115 304.913 310.25 304.478 310.494C304.043 310.737 303.673 311.082 303.399 311.5C302.899 312.287 302.723 313.238 302.91 314.152C303.096 315.066 303.63 315.872 304.399 316.4C306.599 318.1 317.799 321.6 326.499 321.6H356.299C357.199 314.6 356.899 309 355.299 304.1C340.099 306.2 342.699 298.4 327.299 300.8L325.399 305.4Z" fill="#FFC619"/>
<path d="M303.7 315.7L304.4 316.4C306.6 318.1 317.8 321.6 326.5 321.6H344.4V321.2C323.9 320.9 310 312.4 305.3 312.4C304.94 312.448 304.598 312.585 304.303 312.798C304.009 313.011 303.772 313.294 303.614 313.62C303.456 313.947 303.38 314.308 303.395 314.671C303.41 315.034 303.515 315.387 303.7 315.7Z" fill="black"/>
<path d="M303.7 315.7C303.2 315 303.8 314.7 305.3 314.7C310 314.7 323.9 321.2 344.4 321.6H356.3C356.3 321.6 356.5 320.2 356.7 318.1C347.4 318.1 337.6 318 328.1 314.9C318.6 311.8 312.2 309.3 305.9 310.1C305.401 310.115 304.914 310.25 304.479 310.494C304.043 310.737 303.673 311.082 303.4 311.5C302.987 312.138 302.794 312.892 302.848 313.65C302.902 314.408 303.201 315.127 303.7 315.7Z" fill="white"/>
<path d="M254.2 306.2L251.5 305.3C247.56 304.181 243.405 304.044 239.4 304.9C235.8 305.7 235.4 307.9 235.8 310.6C235.318 310.63 234.851 310.773 234.434 311.016C234.018 311.259 233.663 311.596 233.4 312C232.9 312.744 232.714 313.655 232.883 314.535C233.051 315.415 233.561 316.193 234.3 316.7C236.4 318.3 247 321.6 255.4 321.6H281.8C282.8 313.7 281.8 309.5 280.6 303.1C272.5 305.8 264.6 301.3 258.4 301.8L254.2 306.2Z" fill="#FFC619"/>
<path d="M387.8 192.2C385.3 190.3 375.9 188.2 368.4 191.4C360.9 194.6 358 197 355.3 202.1C352.6 207.2 350.9 209.9 352.7 212.5C353.969 214.43 355.372 216.268 356.9 218C356.847 219.639 356.948 221.279 357.2 222.9C357.6 224.8 361.1 224.8 364.3 222.9L391.3 205.1C391.9 196.8 390.2 194.2 387.8 192.2Z" fill="#FF8CC4"/>
<path d="M362.699 216C361.701 212.605 361.031 209.122 360.699 205.6" stroke="black" stroke-width="2" stroke-linecap="round" stroke-linejoin="round"/>
<path d="M373.099 205.1H400.799C403.673 205.126 406.42 206.286 408.442 208.327C410.465 210.369 411.599 213.126 411.599 216V274.2C411.599 277.992 410.093 281.63 407.411 284.311C404.729 286.993 401.092 288.5 397.299 288.5H362.199V216C362.199 213.109 363.348 210.336 365.392 208.292C367.436 206.248 370.208 205.1 373.099 205.1Z" fill="#5865F2"/>
<path d="M389.9 274.2C389.9 277.992 388.393 281.63 385.711 284.311C383.029 286.993 379.392 288.5 375.6 288.5H397.3C401.092 288.5 404.729 286.993 407.411 284.311C410.093 281.63 411.6 277.992 411.6 274.2V216C411.613 214.573 411.343 213.158 410.806 211.836C410.27 210.514 409.476 209.312 408.472 208.298C407.468 207.285 406.273 206.48 404.956 205.931C403.639 205.382 402.226 205.1 400.8 205.1C397.909 205.1 395.136 206.248 393.092 208.292C391.048 210.336 389.9 213.109 389.9 216V274.2Z" fill="#3442D9"/>
<path d="M233.599 316C233.857 316.207 234.092 316.442 234.299 316.7C236.399 318.3 247.099 321.6 255.399 321.6H272.299V321.2C252.899 320.9 239.599 312.9 235.099 312.9C233.699 312.9 232.799 315.1 233.599 316Z" fill="black"/>
<path d="M233.6 316C233.2 315.4 233.7 315 235.1 315C239.6 315 252.9 321.2 272.3 321.6H281.8C281.8 321.6 282 320.2 282.1 318.3C273.2 318.3 265.9 318.1 256.9 315.2C247.9 312.3 241.8 309.9 235.8 310.6C235.318 310.63 234.851 310.773 234.434 311.016C234.017 311.259 233.663 311.596 233.4 312C232.99 312.596 232.787 313.311 232.823 314.034C232.86 314.756 233.132 315.447 233.6 316Z" fill="white"/>
<path d="M320.399 164.4C318.002 166.046 315.085 166.757 312.199 166.4C308.331 165.983 304.762 164.127 302.199 161.2" stroke="#2A88E6" stroke-width="2" stroke-linecap="round" stroke-linejoin="round"/>
<path d="M334.3 154.9H334.6C334.803 154.889 334.999 154.816 335.159 154.691C335.32 154.565 335.439 154.394 335.5 154.2C338.766 145.815 343.816 138.24 350.3 132C350.192 131.204 350.125 130.403 350.1 129.6C342.826 136.202 337.208 144.424 333.7 153.6C333.652 153.724 333.63 153.857 333.634 153.991C333.639 154.124 333.67 154.255 333.726 154.376C333.782 154.497 333.861 154.606 333.96 154.696C334.058 154.786 334.174 154.855 334.3 154.9Z" fill="black"/>
<path d="M385.999 200.6L362.599 201C360.599 215.9 362.399 220 363.099 224C363.799 228 365.799 228.3 367.199 228.3H375.699C379.199 228.3 380.999 228.5 382.299 226.6C383.599 224.7 383.099 222.1 381.699 216.9C381.376 215.43 381.626 213.891 382.399 212.6C384.623 208.981 385.864 204.845 385.999 200.6Z" fill="#FF8CC4"/>
<path d="M368.3 184C373.7 180.7 382.4 179 388.6 182.3" stroke="black" stroke-width="2" stroke-linecap="round" stroke-linejoin="round"/>
<path d="M295.599 192.1L291.199 189.6" stroke="black" stroke-width="2" stroke-linecap="round" stroke-linejoin="round"/>
<path d="M374.899 228.3H372.499C369.999 219 369.099 214 369.399 210.8C369.8 207.426 370.435 204.085 371.299 200.8C371.409 200.528 371.606 200.302 371.86 200.157C372.114 200.011 372.41 199.956 372.699 200C372.893 200.048 373.069 200.148 373.21 200.289C373.351 200.43 373.451 200.606 373.499 200.8V201.4C372.724 204.564 372.123 207.769 371.699 211C371.399 214 372.299 219.1 374.899 228.3Z" fill="black"/>
<path d="M336.799 235.8C336.659 235.597 336.454 235.447 336.219 235.375C335.983 235.302 335.73 235.311 335.499 235.4C335.381 235.452 335.276 235.529 335.19 235.625C335.105 235.722 335.041 235.835 335.003 235.959C334.965 236.082 334.954 236.212 334.97 236.34C334.987 236.468 335.031 236.59 335.099 236.7C336.999 240.5 339.699 247 342.799 254.5L344.499 258.5H346.499L344.499 253.7C341.399 246.2 338.699 239.7 336.799 235.8Z" fill="black"/>
<path d="M284.8 241.7C284.789 241.571 284.75 241.447 284.687 241.334C284.623 241.222 284.536 241.124 284.432 241.049C284.328 240.973 284.208 240.92 284.082 240.894C283.956 240.869 283.825 240.871 283.7 240.9C283.575 240.896 283.452 240.921 283.339 240.973C283.226 241.025 283.127 241.103 283.049 241.2C282.972 241.297 282.918 241.41 282.892 241.532C282.866 241.653 282.868 241.779 282.9 241.9C283.1 244.5 283.3 250.1 283.6 258.5H285.5C285.2 250 285 244.4 284.8 241.7Z" fill="black"/>
<path d="M201.5 25.9C204.6 17.3 212.9 16.5 215.2 17.3C217.5 18.1 218.4 21.7 213.1 22.2C207.8 22.7 205.6 23 201.5 25.9Z" fill="#FF78B9"/>
<path d="M216.1 156.4C243.493 156.4 265.7 134.193 265.7 106.8C265.7 79.4068 243.493 57.2001 216.1 57.2001C188.707 57.2001 166.5 79.4068 166.5 106.8C166.5 134.193 188.707 156.4 216.1 156.4Z" fill="#EB459F"/>
<path d="M175.499 93.9001C160.199 80.6001 153.999 65.2001 152.699 56.6001C151.399 48.0001 165.599 54.2001 176.999 85.9001L175.499 93.9001Z" fill="#3DDB7F"/>
<path d="M156.7 60.8C161.3 70.3 172.4 85 172.4 85" stroke="black" stroke-width="2" stroke-linecap="round" stroke-linejoin="round"/>
<path d="M177 121.2C187.99 121.2 196.9 112.29 196.9 101.3C196.9 90.3096 187.99 81.4 177 81.4C166.009 81.4 157.1 90.3096 157.1 101.3C157.1 112.29 166.009 121.2 177 121.2Z" fill="#3DDB7F"/>
<path d="M218 80.5001C232 66.3001 239.1 50.1001 243.4 41.6001C247.7 33.1001 251.3 35.6001 251.1 48.8001C250.9 62.0001 244.5 80.3001 223.8 87.5001L218 80.5001Z" fill="#3DDB7F"/>
<path d="M247.6 46C241.7 63.8 229.2 81.5 229.2 81.5" stroke="black" stroke-width="2" stroke-linecap="round" stroke-linejoin="round"/>
<path d="M232.2 119.2C243.798 119.2 253.2 109.798 253.2 98.2001C253.2 86.6021 243.798 77.2001 232.2 77.2001C220.602 77.2001 211.2 86.6021 211.2 98.2001C211.2 109.798 220.602 119.2 232.2 119.2Z" fill="#3DDB7F"/>
<path d="M265.7 106.8C265.676 115.788 263.216 124.601 258.58 132.301C253.945 140.001 247.308 146.3 239.377 150.527C231.445 154.755 222.516 156.752 213.539 156.307C204.562 155.862 195.874 152.991 188.4 148H188.3C185.295 145.813 182.574 143.26 180.2 140.4C173.4 126.6 172.6 111.1 177.8 100.3C176.7 95.7001 175.7 91.2001 174.9 87.1001C174.5 85.0001 174.1 82.9001 173.8 80.9001C171.1 64.6001 171.8 52.5001 180.1 43.7001C191.6 31.4001 215.2 34.0001 224.2 48.0001C226.243 51.2502 227.573 54.8974 228.1 58.7001C228.444 60.5513 228.678 62.4212 228.8 64.3001C229.161 70.6363 228.994 76.9916 228.3 83.3001L248.2 106.9C252.3 101.4 257.3 99.0001 262.2 98.6001L265 98.4001C265.479 101.174 265.713 103.985 265.7 106.8Z" fill="#3DDB7F"/>
<path d="M265 98.3001C250.8 97.5001 242.6 105.9 226 126.8C209.4 147.7 184.4 149.3 177 134.3H174.8C180.142 142.329 187.709 148.626 196.575 152.421C205.44 156.216 215.22 157.345 224.717 155.668C234.214 153.992 243.016 149.583 250.046 142.982C257.076 136.38 262.03 127.873 264.3 118.5C265.417 114.7 265.989 110.761 266 106.8C265.925 103.942 265.59 101.097 265 98.3001Z" fill="white"/>
<path d="M180.1 45.6C181.1 53.7 204.9 42.6001 218.6 41.9001L185.6 39.3C184.078 40.1163 182.666 41.1246 181.4 42.3C180.931 42.7029 180.568 43.214 180.342 43.7891C180.115 44.3641 180.032 44.9857 180.1 45.6Z" fill="black"/>
<path d="M217.8 100.6C223.2 105.8 219.7 113.8 209.3 114.8C198.9 115.8 185.6 109.6 180.2 104.5C174.8 99.4001 178.8 94.3001 189.2 93.3001C199.6 92.3001 212.4 95.5001 217.8 100.6Z" fill="#990F61"/>
<path d="M216.2 99.3C210.1 95 198.7 92.3 189.2 93.3C186.456 93.4859 183.774 94.1989 181.3 95.4C181.4 100.3 185.7 104.6 195 104C197.3 103.9 198.5 101 198.5 101C212.2 104.1 216.2 105.1 216.2 99.3Z" fill="white"/>
<path d="M198.5 101C187.5 98.1001 181.1 99.7001 189.5 103.3C197.9 106.9 198.5 101 198.5 101Z" fill="#8CD9FF"/>
<path d="M189.5 116.5C193.808 116.5 197.3 113.008 197.3 108.7C197.3 104.392 193.808 100.9 189.5 100.9C185.192 100.9 181.7 104.392 181.7 108.7C181.7 113.008 185.192 116.5 189.5 116.5Z" fill="#FFE75C"/>
<path d="M180.5 118.6C183.814 118.6 186.5 115.914 186.5 112.6C186.5 109.286 183.814 106.6 180.5 106.6C177.186 106.6 174.5 109.286 174.5 112.6C174.5 115.914 177.186 118.6 180.5 118.6Z" fill="#FFE75C"/>
<path d="M180.5 110.6C182.875 110.6 184.8 108.675 184.8 106.3C184.8 103.925 182.875 102 180.5 102C178.125 102 176.2 103.925 176.2 106.3C176.2 108.675 178.125 110.6 180.5 110.6Z" fill="#FFE75C"/>
<path d="M202.8 136.7C205.175 136.7 207.1 134.775 207.1 132.4C207.1 130.025 205.175 128.1 202.8 128.1C200.425 128.1 198.5 130.025 198.5 132.4C198.5 134.775 200.425 136.7 202.8 136.7Z" fill="#FFE75C"/>
<path d="M196.5 146.8C199.648 146.8 202.2 144.248 202.2 141.1C202.2 137.952 199.648 135.4 196.5 135.4C193.352 135.4 190.8 137.952 190.8 141.1C190.8 144.248 193.352 146.8 196.5 146.8Z" fill="#FFE75C"/>
<path d="M225.8 148C228.948 148 231.5 145.448 231.5 142.3C231.5 139.152 228.948 136.6 225.8 136.6C222.652 136.6 220.1 139.152 220.1 142.3C220.1 145.448 222.652 148 225.8 148Z" fill="#FFE75C"/>
<path d="M156.5 144.3C159.648 144.3 162.2 141.748 162.2 138.6C162.2 135.452 159.648 132.9 156.5 132.9C153.352 132.9 150.8 135.452 150.8 138.6C150.8 141.748 153.352 144.3 156.5 144.3Z" fill="#FFE75C"/>
<path d="M214 152.2C215.215 152.2 216.2 151.215 216.2 150C216.2 148.785 215.215 147.8 214 147.8C212.785 147.8 211.8 148.785 211.8 150C211.8 151.215 212.785 152.2 214 152.2Z" fill="#FFE75C"/>
<path d="M211.8 122.2C213.346 122.2 214.6 120.946 214.6 119.4C214.6 117.854 213.346 116.6 211.8 116.6C210.254 116.6 209 117.854 209 119.4C209 120.946 210.254 122.2 211.8 122.2Z" fill="#FFE75C"/>
<path d="M204.7 171.6C205.915 171.6 206.9 170.615 206.9 169.4C206.9 168.185 205.915 167.2 204.7 167.2C203.485 167.2 202.5 168.185 202.5 169.4C202.5 170.615 203.485 171.6 204.7 171.6Z" fill="#FFE75C"/>
<path d="M212.099 223.4C213.314 223.4 214.299 222.415 214.299 221.2C214.299 219.985 213.314 219 212.099 219C210.884 219 209.899 219.985 209.899 221.2C209.899 222.415 210.884 223.4 212.099 223.4Z" fill="#FFE75C"/>
<path d="M196.5 138.6C198.875 138.6 200.8 136.675 200.8 134.3C200.8 131.925 198.875 130 196.5 130C194.125 130 192.2 131.925 192.2 134.3C192.2 136.675 194.125 138.6 196.5 138.6Z" fill="#FFE75C"/>
<path d="M204.7 122.3C208.787 122.3 212.1 118.987 212.1 114.9C212.1 110.813 208.787 107.5 204.7 107.5C200.613 107.5 197.3 110.813 197.3 114.9C197.3 118.987 200.613 122.3 204.7 122.3Z" fill="#FFE75C"/>
<path d="M183.6 127.4C187.687 127.4 191 124.087 191 120C191 115.913 187.687 112.6 183.6 112.6C179.513 112.6 176.2 115.913 176.2 120C176.2 124.087 179.513 127.4 183.6 127.4Z" fill="#FFE75C"/>
<path d="M199.799 118.8C203.886 118.8 207.199 115.487 207.199 111.4C207.199 107.313 203.886 104 199.799 104C195.713 104 192.399 107.313 192.399 111.4C192.399 115.487 195.713 118.8 199.799 118.8Z" fill="#FFE75C"/>
<path d="M184.199 63L181.899 60.4" stroke="black" stroke-width="2" stroke-linecap="round" stroke-linejoin="round"/>
<path d="M184.2 66L180.8 65" stroke="black" stroke-width="2" stroke-linecap="round" stroke-linejoin="round"/>
<path d="M188.77 74.3259C191.224 73.9371 192.682 70.2612 192.025 66.1155C191.369 61.9698 188.847 58.9242 186.392 59.313C183.937 59.7018 182.48 63.3777 183.136 67.5234C183.793 71.6691 186.315 74.7147 188.77 74.3259Z" fill="white"/>
<path d="M187.344 69.7289C188.442 69.6116 189.161 67.9138 188.95 65.9368C188.738 63.9598 187.677 62.4523 186.579 62.5697C185.48 62.6871 184.761 64.3849 184.972 66.3618C185.184 68.3388 186.245 69.8463 187.344 69.7289Z" fill="black"/>
<path d="M205.5 62.1L208.3 59.3" stroke="black" stroke-width="2" stroke-linecap="round" stroke-linejoin="round"/>
<path d="M206.6 65.2001L210.5 64.6001" stroke="black" stroke-width="2" stroke-linecap="round" stroke-linejoin="round"/>
<path d="M204.362 74.1867C207.253 73.7288 209.064 69.9968 208.407 65.8512C207.751 61.7055 204.875 58.7159 201.984 59.1738C199.093 59.6317 197.281 63.3637 197.938 67.5094C198.595 71.655 201.471 74.6446 204.362 74.1867Z" fill="white"/>
<path d="M215.5 28.8C208.6 24.5 194.8 18.7 185 22.6C175.2 26.5 178.8 34.3 183.2 40.8L218.6 41.9C222.1 36.9 222 32.9 215.5 28.8Z" fill="#3442D9"/>
<path d="M218.599 41.9001C204.974 43.2019 191.232 42.5282 177.799 39.9001C166.599 37.6001 162.999 34.9001 176.499 35.6001C189.999 36.3001 200.199 38.5001 218.599 41.9001Z" fill="#5865F2"/>
<path d="M256.2 171C257.4 174.1 256.8 176 254.8 177.3C252.8 178.6 251 176.5 249.1 173.4C247.22 170.396 244.969 167.64 242.4 165.2C241.328 167.895 239.769 170.37 237.8 172.5C239.4 174.9 240.9 176.6 241.5 178.4C242.1 180.2 241.6 181.9 239.2 182.1C236.8 182.3 235.9 182.1 232.9 178.7C229.9 175.3 228.5 174 229.3 172C227 174.1 225.5 175.2 225.5 175.2L225.9 179.1C226.4 183.1 225.6 184.5 223.5 184.6C221.4 184.7 220.7 183.6 219.9 180.5C219.1 177.4 218.7 175.9 219.1 174.6C219.5 173.3 221.6 170.6 226.2 164.8C226 165 224 166.2 220 167C216 167.8 214.3 167.2 214.1 165.7C213.9 164.2 214.3 163.3 218.8 161.3C221.2 160.3 222.5 159.2 224.4 156.4L224.8 155.7L226.6 152.8C225.6 139.4 224.4 135.8 226.7 129.7C229.9 121.6 239.2 120.8 264.3 118.5C262.426 126.563 258.498 134.003 252.9 140.1H252.8C251.676 141.374 250.474 142.576 249.2 143.7C249.9 153.7 247.3 158.7 247.3 158.7C253.3 165.5 255 167.9 256.2 171Z" fill="#3DDB7F"/>
<path d="M249.5 133.1C249.461 132.982 249.398 132.873 249.317 132.779C249.235 132.684 249.136 132.607 249.024 132.552C248.913 132.496 248.792 132.463 248.667 132.454C248.543 132.445 248.418 132.461 248.3 132.5C248.182 132.539 248.073 132.602 247.978 132.683C247.884 132.765 247.807 132.864 247.752 132.976C247.696 133.087 247.663 133.209 247.654 133.333C247.645 133.457 247.661 133.582 247.7 133.7C248.556 137.004 249.059 140.39 249.2 143.8L251 142.1C250.756 139.063 250.254 136.052 249.5 133.1Z" fill="black"/>
<path d="M210.5 125C209.7 128.8 208.8 131.6 207.3 132.9C205.8 134.2 204.3 134 198 134.3C197.4 138 195.7 140.1 192 141.1C190.749 143.359 189.345 145.531 187.8 147.6C190.833 149.742 194.126 151.489 197.6 152.8C186.9 160.7 179 164.4 172.6 164.4C166.2 164.4 162.5 160.4 162.2 155.7C161.8 148.6 167.3 141 173.7 132.6L178.3 126.4C179.197 125.193 179.754 123.768 179.912 122.273C180.071 120.778 179.825 119.268 179.2 117.9C178.412 116.283 177.474 114.743 176.4 113.3C175.1 111.3 175.7 109.3 177.8 106.9C179.9 104.5 181.3 103.3 183.2 104.7C185.1 106.1 183.4 108.8 182.5 110.5L183.9 112.5C184.6 113.4 185.5 113.3 189.8 111.3C196.3 108.2 201.6 106.4 205.5 106.1C209.4 105.8 210.3 107.7 210.5 108.9C210.7 110.1 210 110.7 205.5 112.7C201 114.7 196.5 117.2 196.5 117.2C201.7 117.1 207.7 117.7 209.7 118.6C211.7 119.5 211.2 121.3 210.5 125Z" fill="#3DDB7F"/>
<path d="M197.6 152.8C194.126 151.489 190.833 149.742 187.8 147.6L185.8 150.4C190.1 153.3 190.8 155.8 190.6 157.6C193.023 156.136 195.361 154.533 197.6 152.8Z" fill="black"/>
<path d="M185.2 116.5C187.4 117.6 187.2 119.2 186.7 121.2C186.2 123.2 186.7 124.1 188 126.6C189.3 129.1 188.5 130.4 187.6 132.9" stroke="#19B375" stroke-width="2" stroke-linecap="round" stroke-linejoin="round"/>
<path d="M202.754 70.1074C203.961 69.9719 204.74 68.0824 204.494 65.8871C204.248 63.6917 203.07 62.0218 201.862 62.1572C200.655 62.2927 199.875 64.1822 200.122 66.3775C200.368 68.5729 201.546 70.2428 202.754 70.1074Z" fill="black"/>
<path d="M175.399 95.5001C176.85 93.6543 178.569 92.0363 180.499 90.7001" stroke="#19B375" stroke-width="2" stroke-linecap="round" stroke-linejoin="round"/>
<path d="M217.7 90.2001C218.3 93.5001 221.4 102.2 228.6 107.1" stroke="#19B375" stroke-width="2" stroke-linecap="round" stroke-linejoin="round"/>
<path d="M210.3 125.8H196.9C196.661 125.8 196.432 125.895 196.264 126.064C196.095 126.232 196 126.461 196 126.7C195.999 126.949 196.09 127.189 196.257 127.374C196.423 127.559 196.652 127.675 196.9 127.7H209.9C210 127.1 210.2 126.4 210.3 125.8Z" fill="black"/>
<path d="M197.3 117L195.7 117.4" stroke="black" stroke-width="2" stroke-linecap="round" stroke-linejoin="round"/>
<path d="M229.3 170.7C230.6 168.4 232.8 163.8 232.8 163.8" stroke="black" stroke-width="2" stroke-linecap="round" stroke-linejoin="round"/>
<path d="M227.4 161.2C227.308 161.147 227.207 161.112 227.102 161.098C226.997 161.085 226.89 161.092 226.787 161.12C226.685 161.148 226.589 161.196 226.506 161.261C226.422 161.326 226.352 161.408 226.3 161.5C225.352 163.121 224.317 164.69 223.2 166.2C224.242 165.829 225.247 165.36 226.2 164.8C226.803 164.049 227.338 163.246 227.8 162.4C227.868 162.299 227.912 162.183 227.928 162.062C227.945 161.941 227.933 161.818 227.894 161.702C227.856 161.586 227.791 161.481 227.706 161.394C227.62 161.307 227.515 161.24 227.4 161.2Z" fill="black"/>
<path d="M445.701 176C444.355 175.136 443.211 173.993 442.348 172.646C441.485 171.3 440.923 169.783 440.701 168.2L439.901 162.9C439.877 162.758 439.803 162.63 439.693 162.539C439.583 162.447 439.444 162.398 439.301 162.4C439.168 162.4 439.041 162.452 438.947 162.546C438.853 162.64 438.801 162.767 438.801 162.9L438.001 168.2C437.754 169.776 437.182 171.283 436.321 172.626C435.46 173.968 434.329 175.117 433.001 176L432.301 176.4C432.205 176.441 432.124 176.512 432.07 176.601C432.016 176.691 431.992 176.795 432.001 176.9C431.992 177.004 432.016 177.108 432.07 177.198C432.124 177.288 432.205 177.358 432.301 177.4L433.001 177.8C434.318 178.671 435.442 179.804 436.302 181.129C437.163 182.454 437.741 183.942 438.001 185.5L438.801 190.9C438.801 191.032 438.853 191.16 438.947 191.253C439.041 191.347 439.168 191.4 439.301 191.4C439.444 191.402 439.583 191.352 439.693 191.261C439.803 191.169 439.877 191.041 439.901 190.9L440.701 185.5C440.937 183.934 441.505 182.437 442.367 181.109C443.23 179.78 444.366 178.652 445.701 177.8L446.401 177.4C446.523 177.261 446.594 177.084 446.601 176.9C446.594 176.715 446.523 176.538 446.401 176.4L445.701 176Z" fill="#57F287"/>
<path d="M45.1003 178.4C44.4203 177.976 43.8432 177.406 43.4108 176.731C42.9784 176.057 42.7015 175.295 42.6003 174.5L42.2003 171.8C42.2003 171.7 42.1003 171.6 41.9003 171.6C41.874 171.6 41.848 171.605 41.8237 171.615C41.7995 171.625 41.7774 171.64 41.7588 171.658C41.7403 171.677 41.7255 171.699 41.7155 171.723C41.7054 171.747 41.7003 171.773 41.7003 171.8L41.3003 174.5C41.0122 176.078 40.114 177.479 38.8003 178.4L38.4003 178.6C38.3003 178.6 38.3003 178.7 38.3003 178.8C38.2957 178.854 38.3022 178.908 38.3194 178.96C38.3365 179.012 38.3641 179.059 38.4003 179.1L38.8003 179.3C39.4477 179.736 40.002 180.297 40.4312 180.949C40.8603 181.601 41.1557 182.332 41.3003 183.1L41.7003 185.8C41.7003 186 41.8003 186.1 41.9003 186.1C41.9798 186.1 42.0561 186.068 42.1124 186.012C42.1687 185.956 42.2003 185.879 42.2003 185.8L42.6003 183.1C42.7018 182.318 42.9796 181.57 43.4127 180.912C43.8458 180.254 44.4229 179.702 45.1003 179.3L45.4003 179.1L45.6003 178.8C45.6003 178.747 45.5792 178.696 45.5417 178.658C45.5042 178.621 45.4533 178.6 45.4003 178.6L45.1003 178.4Z" fill="#459FF7"/>
<path d="M296 35.0998C294.419 34.0971 293.074 32.765 292.056 31.1944C291.037 29.6238 290.37 27.8519 290.1 25.9998L289.2 19.6998C289.143 19.5584 289.047 19.4362 288.923 19.3477C288.799 19.2591 288.652 19.2078 288.5 19.1998C288.357 19.1978 288.218 19.2471 288.108 19.3388C287.997 19.4305 287.924 19.5585 287.9 19.6998L286.9 25.9998C286.667 27.8514 286.027 29.6284 285.023 31.2021C284.02 32.7759 282.68 34.1071 281.1 35.0998L280.3 35.5998C280.126 35.7536 280.019 35.9686 280 36.1998C280.019 36.431 280.126 36.6459 280.3 36.7998L281.1 37.2998C282.68 38.2924 284.02 39.6237 285.023 41.1974C286.027 42.7712 286.667 44.5481 286.9 46.3998L287.9 52.6998C287.924 52.841 287.997 52.9691 288.108 53.0608C288.218 53.1525 288.357 53.2018 288.5 53.1998C288.652 53.1917 288.799 53.1404 288.923 53.0519C289.047 52.9633 289.143 52.8411 289.2 52.6998L290.1 46.3998C290.37 44.5476 291.037 42.7757 292.056 41.2051C293.074 39.6346 294.419 38.3024 296 37.2998L296.8 36.7998C296.974 36.6459 297.081 36.431 297.1 36.1998C297.081 35.9686 296.974 35.7536 296.8 35.5998L296 35.0998Z" fill="#808AFF"/>
<path d="M85.2002 75.8998C84.2777 75.3113 83.4893 74.5352 82.8863 73.6221C82.2833 72.709 81.8792 71.6793 81.7002 70.5998L81.2002 66.7998C81.1002 66.5998 81.0002 66.4998 80.8002 66.4998C80.6002 66.4998 80.4002 66.5998 80.4002 66.7998L79.9002 70.5998C79.7212 71.6793 79.3171 72.709 78.7141 73.6221C78.1111 74.5352 77.3227 75.3113 76.4002 75.8998L75.9002 76.2998C75.8002 76.2998 75.7002 76.3998 75.7002 76.5998C75.7002 76.6998 75.8002 76.7998 75.9002 76.8998L76.4002 77.1998C77.3257 77.8085 78.1146 78.6028 78.7171 79.5323C79.3196 80.4619 79.7224 81.5064 79.9002 82.5998L80.4002 86.3998C80.4229 86.4878 80.4748 86.5654 80.5475 86.62C80.6203 86.6745 80.7094 86.7026 80.8002 86.6998C81.0002 86.6998 81.1002 86.4998 81.2002 86.3998L81.7002 82.5998C81.8779 81.5064 82.2808 80.4619 82.8833 79.5323C83.4858 78.6028 84.2747 77.8085 85.2002 77.1998L85.7002 76.8998C85.8002 76.7998 85.9002 76.6998 85.9002 76.5998C85.9002 76.3998 85.8002 76.2998 85.7002 76.2998L85.2002 75.8998Z" fill="#FF8CC4"/>
</svg>
